<svg width="182" height="51" viewBox="0 0 182 51" fill="none" xmlns="http://www.w3.org/2000/svg">
<g clip-path="url(#clip0_71_177)">
<rect y="0.5" width="50" height="50" rx="25" fill="url(#paint0_linear_71_177)"/>
<path d="M23.8764 21.3149C23.8332 21.3297 23.8287 21.3444 23.7901 21.663C23.7742 21.7781 23.7175 22.0053 23.6562 22.1941C23.5291 22.5746 23.5178 22.6189 23.4951 22.9375C23.4746 23.2384 23.4156 23.3947 23.0094 24.2444C22.7393 24.8078 22.3625 25.7312 22.3875 25.7636C22.4034 25.7843 22.6031 25.6663 22.7348 25.5571C22.7983 25.507 22.9072 25.3949 22.9799 25.3093L23.1092 25.153L23.0116 25.4598C22.7506 26.2681 22.7234 26.333 22.5645 26.5543C22.4828 26.6723 22.3784 26.8404 22.333 26.9289C22.2332 27.1354 22.2196 27.1472 21.9926 27.2682C21.8791 27.3301 21.7793 27.4068 21.7407 27.4629C21.6862 27.5396 21.6771 27.572 21.6839 27.7048C21.6907 27.8405 21.6998 27.8641 21.7679 27.9231C21.811 27.9615 21.87 27.991 21.8973 27.991C21.9268 27.991 21.9517 28.0028 21.9517 28.0146C21.9517 28.0293 21.6658 28.2152 21.314 28.4335C20.9645 28.6488 20.6513 28.8524 20.6218 28.8819C20.5832 28.9232 20.5673 28.9674 20.5673 29.0353C20.5673 29.2093 20.6944 29.3037 21.0462 29.3922C21.3821 29.4748 21.6635 29.4335 22.0425 29.2477L22.2377 29.1533L22.1628 29.3155C22.122 29.404 22.0879 29.4925 22.0879 29.5132C22.0879 29.7197 20.8873 30.5103 19.9885 30.8997C19.7888 30.9853 19.5687 31.0649 19.5006 31.0767L19.3757 31.0974L19.4506 31.1387C19.6912 31.2685 20.4084 31.2508 21.0848 31.1033C21.6227 30.9823 22.2423 30.7522 22.4238 30.5988C22.4511 30.5752 22.4738 30.5634 22.4738 30.5752C22.4738 30.5841 22.4034 30.7257 22.3171 30.8909C21.954 31.5812 21.5432 32.0266 21.0212 32.2922C20.5446 32.5341 20.2359 32.6491 19.9545 32.6963C19.5755 32.7553 19.5097 32.7819 19.4665 32.8881C19.3485 33.1831 19.5165 33.5725 19.8501 33.776C20.0884 33.9206 20.5627 34.0386 20.9077 34.0386C20.969 34.0386 21.0212 34.0504 21.0212 34.0622C21.0212 34.0947 20.8896 34.251 20.8124 34.313C20.7784 34.3395 20.6399 34.4044 20.506 34.4546C20.3721 34.5047 20.2337 34.5667 20.1996 34.5873C20.0294 34.7024 20.0158 35.1301 20.1724 35.3101C20.2518 35.3986 20.363 35.4576 20.5718 35.5136C20.7829 35.5726 20.885 35.6493 20.885 35.7467C20.885 35.8175 20.5355 36.499 20.4515 36.5904C20.3562 36.6937 20.2995 36.6819 20.0067 36.5049C19.8841 36.4311 19.698 36.3426 19.5936 36.3102C19.4892 36.2748 19.3531 36.2158 19.2918 36.1745C19.1851 36.1037 19.0013 35.9119 19.0013 35.8706C19.0013 35.8588 19.0784 35.8322 19.1738 35.8145C19.4733 35.7526 19.7026 35.5815 19.7389 35.3927C19.7638 35.2599 19.6799 35.1714 19.4098 35.0534C19.0966 34.9148 19.0421 34.8764 18.8061 34.6257C18.4815 34.2835 18.2523 33.9766 18.2523 33.8852C18.2523 33.8734 18.3068 33.8616 18.3749 33.8616C18.57 33.8616 18.7584 33.7495 18.8447 33.5754C18.9468 33.3778 18.8832 33.2804 18.5769 33.1565C18.359 33.068 18.1365 32.9205 18.0299 32.7907L17.9754 32.7258L18.1887 32.7081C18.3567 32.6963 18.4225 32.6757 18.5133 32.6137C18.6971 32.4869 18.7743 32.3748 18.7743 32.2361C18.7743 32.1476 18.7766 32.1476 18.3522 31.9735C18.216 31.9204 18.0662 31.8319 17.9845 31.7641C17.8528 31.652 17.6645 31.4101 17.6145 31.2891C17.5941 31.239 17.5987 31.236 17.6554 31.2567C17.7553 31.2921 18.0957 31.2832 18.191 31.239C18.3204 31.1829 18.3022 31.1151 18.1093 30.944C17.7689 30.646 17.5805 30.2566 17.5033 29.6902C17.4738 29.4866 17.4375 29.3214 17.4035 29.2447C17.349 29.1267 17.3445 29.0795 17.3104 28.2388C17.2741 27.3213 17.2628 27.1649 17.2287 27.1649C17.2015 27.1649 17.1447 27.4334 17.0925 27.8139C17.054 28.0942 17.0494 28.2211 17.0608 28.5367C17.0766 28.9114 17.0744 28.9291 17.0154 29.112C16.9722 29.2447 16.9495 29.3863 16.9382 29.5781C16.9223 29.8229 16.9132 29.8613 16.8497 29.9646C16.8088 30.0295 16.7657 30.115 16.7521 30.1563C16.7362 30.2006 16.6658 30.2714 16.5705 30.3363C16.3663 30.4749 16.3617 30.5339 16.5501 30.6372C16.625 30.6814 16.6863 30.7257 16.6863 30.7375C16.6863 30.7729 16.5524 30.8968 16.4139 30.9853C16.2346 31.1033 16.0621 31.1741 15.8806 31.2095C15.7875 31.2242 15.6967 31.2626 15.6581 31.298C15.6173 31.3363 15.5696 31.354 15.5106 31.3481C15.4289 31.3393 15.4266 31.3422 15.4335 31.4278C15.4448 31.5546 15.4698 31.5782 15.5969 31.5989C15.6763 31.6107 15.7444 31.649 15.8148 31.7139C15.9078 31.7995 15.9418 31.8142 16.103 31.826L16.2868 31.8408L16.2097 31.9558C16.1211 32.0857 16.0213 32.1506 15.9078 32.1506C15.8647 32.1506 15.7989 32.1653 15.758 32.183C15.7035 32.2096 15.6877 32.2332 15.6877 32.2951C15.6877 32.4987 15.8601 32.6108 16.137 32.5842L16.3118 32.5695L16.2324 32.655C16.1892 32.7052 16.0803 32.7907 15.994 32.8468C15.842 32.9441 15.817 32.95 15.4902 32.9766C15.2996 32.9943 15.1203 33.0179 15.0885 33.0326C15.009 33.0739 14.9909 33.1713 15.0454 33.2686C15.0862 33.3394 15.1498 33.3807 15.438 33.5194C15.4947 33.5459 15.5651 33.5931 15.5969 33.6256C15.665 33.6964 15.64 33.7288 15.4902 33.7554C15.2905 33.7908 15.2474 33.8852 15.3699 34.0209C15.4516 34.1094 15.5923 34.1419 15.8057 34.1182L15.9645 34.1005L15.6967 34.3395C15.3949 34.608 15.3381 34.6375 15.0454 34.7024C14.9296 34.7289 14.7821 34.782 14.7163 34.8233C14.6346 34.8735 14.5415 34.9 14.4099 34.9148C14.1761 34.9354 14.1216 34.9738 14.1216 35.1272C14.1216 35.2216 14.1352 35.257 14.2011 35.3337C14.2941 35.4399 14.4984 35.5254 14.7617 35.5726C14.8638 35.5903 14.9523 35.611 14.9568 35.6169C14.9614 35.6228 14.95 35.6582 14.9319 35.6965C14.8819 35.7968 14.8615 35.9679 14.8933 36.0417C14.9069 36.0771 14.95 36.1302 14.9886 36.1627L15.0567 36.2158L14.9614 36.3515C14.7753 36.6111 14.276 36.9562 14.0762 36.9592C13.8084 36.9651 13.6904 37.0506 13.6904 37.2394C13.6904 37.3633 13.7721 37.4695 13.9128 37.5315C13.9696 37.558 14.1171 37.6524 14.2396 37.7439C14.487 37.9268 14.6255 37.9917 14.7753 37.9917C14.8774 37.9917 14.8774 37.9917 14.8343 38.0536C14.8116 38.0861 14.6164 38.2277 14.4008 38.3664L14.0082 38.6171L13.9242 38.5522C13.561 38.2749 13.1003 37.7203 12.8756 37.2866C12.6918 36.9356 12.3536 36.3456 12.2174 36.1361C12.1425 36.021 12.1267 35.9827 12.1584 35.9945C12.424 36.1037 12.9505 36.1922 13.3091 36.1922C13.7744 36.1922 14.3486 36.0446 14.3667 35.9207C14.3758 35.8617 14.2805 35.8204 13.8606 35.7054C13.4748 35.5992 13.4975 35.6139 13.5905 35.5077C13.6768 35.4074 13.7358 35.2835 13.7358 35.195C13.7358 35.1419 13.7154 35.136 13.5043 35.1242C13.0708 35.1006 12.8711 34.9561 12.374 34.3071C11.7839 33.5371 11.3323 32.7317 11.1485 32.124L11.1008 31.9676L11.3459 32.2686C11.8679 32.9146 12.5306 33.4722 13.0753 33.7259C13.5452 33.9471 14.3145 33.9619 14.6209 33.7583L14.6777 33.72L14.6209 33.6875C14.5892 33.6728 14.4734 33.6108 14.3599 33.5518C14.0785 33.4043 13.7721 33.189 13.4657 32.9264C13.2478 32.7376 13.2138 32.6963 13.2433 32.6698C13.2637 32.6521 13.3432 32.5901 13.4203 32.5341C13.6042 32.3984 13.7948 32.1506 13.8629 31.9617C13.9037 31.8496 13.9174 31.7611 13.9174 31.6107V31.413H13.8084C13.5406 31.413 13.03 31.2478 12.7009 31.059C12.5193 30.9528 12.2878 30.7581 12.1244 30.5752C12.0563 30.4985 11.936 30.3805 11.8588 30.3156L11.7181 30.1947L11.8021 30.115C12.0767 29.8583 12.2606 29.4896 12.2606 29.2005C12.2606 28.9556 12.2401 28.932 11.9859 28.9025C11.8679 28.8878 11.7159 28.8524 11.6478 28.8288C11.5071 28.7757 11.0304 28.4187 10.9465 28.3037L10.892 28.227H11.0259C11.2846 28.227 11.5388 28.0883 11.5933 27.9142C11.6614 27.7018 11.5661 27.5189 11.2642 27.2859C11.1734 27.2151 11.0599 27.1089 11.01 27.044C10.9238 26.9319 10.9238 26.9319 10.9601 26.8404C10.9782 26.7873 10.9896 26.7077 10.9828 26.6546C10.976 26.5808 10.9873 26.5454 11.0372 26.4805C11.1235 26.3655 11.178 26.1354 11.1666 25.9377C11.153 25.7459 10.9805 25.271 10.8216 24.9907C10.7672 24.8904 10.7036 24.7695 10.6855 24.7193C10.6287 24.5807 10.5674 24.1972 10.4925 23.5363C10.4108 22.8136 10.3995 22.7428 10.3723 22.7221C10.3337 22.6897 10.3201 22.7428 10.3064 23.0142C10.2951 23.2177 10.2769 23.3269 10.2315 23.4508C10.1952 23.5511 10.1589 23.734 10.1385 23.9228C10.0454 24.7488 10.0023 24.9052 9.79805 25.1854C9.73223 25.2769 9.64825 25.4155 9.61194 25.4981C9.55974 25.6161 9.51435 25.6663 9.3986 25.7489C9.23972 25.864 9.22384 25.9023 9.26242 26.097C9.30327 26.2917 9.37817 26.4068 9.49619 26.4599L9.60286 26.5041L9.54612 26.5956C9.46215 26.7342 9.23292 26.9496 9.0105 27.0941C8.90155 27.1649 8.77446 27.2652 8.72906 27.3183C8.51118 27.5661 8.56792 27.8346 8.86297 27.9467C8.92879 27.9703 9.02638 28.0323 9.08085 28.0795C9.21476 28.1975 9.28739 28.1945 9.3986 28.0647C9.48938 27.9556 9.56882 27.9349 9.65506 27.9939C9.69818 28.0234 9.69137 28.0323 9.58016 28.1296C9.41448 28.2712 9.36001 28.342 9.31689 28.4571C9.29646 28.5131 9.24653 28.578 9.19887 28.6075C9.0695 28.696 8.80396 28.7875 8.60424 28.817C8.43175 28.8435 8.41359 28.8524 8.31373 28.9704C8.25472 29.0412 8.14805 29.1621 8.07769 29.2388C8.00052 29.3244 7.94832 29.404 7.94832 29.4394C7.94832 29.5014 8.03003 29.5604 8.17528 29.5987C8.21841 29.6105 8.34777 29.6784 8.45898 29.7492C8.57473 29.82 8.77219 29.9114 8.9129 29.9557C9.25107 30.0649 9.25107 30.0649 9.07858 30.0855C8.89928 30.1091 8.84028 30.1534 8.72226 30.3628C8.67006 30.4513 8.62012 30.531 8.60651 30.5428C8.59289 30.5546 8.49984 30.5634 8.39543 30.5664C8.21614 30.5723 8.20479 30.5782 8.06634 30.6991C7.98691 30.7699 7.88931 30.8466 7.84619 30.8702C7.4876 31.0649 6.40046 30.8968 5.68326 30.5398C5.45403 30.4248 5.1726 30.1976 5.07955 30.0531C5.04778 30.0029 5.02054 29.9734 5.02054 29.9852C5.02054 30.0442 5.19757 30.4071 5.39276 30.7463C5.51304 30.9528 5.61064 31.1357 5.61064 31.1475C5.61064 31.1623 5.6356 31.2124 5.66965 31.2626C5.71277 31.3304 5.77405 31.3717 5.92384 31.4307C6.14399 31.5163 6.16896 31.5369 6.46174 31.8555C6.6887 32.1034 6.79537 32.1948 6.88615 32.2243C6.98374 32.2568 6.96332 32.2892 6.80445 32.3541C6.47535 32.4869 5.99874 32.5075 5.77178 32.4043C5.65149 32.3482 5.6356 32.3571 5.70596 32.4456C5.79901 32.5606 5.92838 32.655 6.16215 32.776C6.28925 32.8409 6.44131 32.9264 6.50032 32.9648C6.74998 33.13 7.22659 33.186 7.50348 33.0857C7.57838 33.0592 7.7486 33.0267 7.8825 33.0179C8.08223 33.0002 8.14351 33.0061 8.22067 33.0474C8.27288 33.0739 8.32735 33.0857 8.34096 33.0739C8.35685 33.0651 8.34777 33.0857 8.32281 33.1241C8.29784 33.1595 8.1662 33.2893 8.02776 33.4073C7.89158 33.5253 7.71682 33.6905 7.64193 33.7731C7.56703 33.8557 7.42178 33.9914 7.31737 34.0711C7.03594 34.2953 6.33918 34.723 6.01463 34.8764C5.74681 35.0033 5.3746 35.1154 5.33375 35.0829C5.32467 35.0741 5.31559 35.08 5.31559 35.0947C5.31559 35.1567 5.54709 35.3897 5.70596 35.49C5.94427 35.6434 6.15534 35.7201 6.42769 35.7526C6.64784 35.7791 6.80445 35.7762 7.3083 35.7319L7.49667 35.7142L7.46036 35.8293C7.43993 35.8912 7.39908 35.9768 7.36731 36.0181C7.30603 36.1007 7.09042 36.2512 7.03141 36.2512C6.95878 36.2512 6.9792 36.3043 7.06999 36.3485C7.3083 36.4636 7.77129 36.5344 8.06861 36.5019C8.16394 36.4931 8.24337 36.4901 8.24337 36.496C8.24337 36.5019 8.17528 36.5609 8.09131 36.6229C7.99825 36.6937 7.84165 36.8648 7.68505 37.0654C7.46263 37.3515 7.39908 37.4135 7.21751 37.5315C7.10176 37.6052 6.83622 37.738 6.62742 37.8265C6.18938 38.0153 6.15988 38.033 6.00782 38.1953C5.8671 38.3457 5.54936 38.5493 5.29289 38.6555C4.97061 38.7853 4.05823 38.862 3.89482 38.7735C3.75184 38.6968 3.65878 38.7705 3.65878 38.9564C3.65878 39.216 4.03554 39.7824 4.32831 39.9712L4.48719 40.0715H4.94111C5.19076 40.0715 5.53801 40.0626 5.71277 40.0479L6.03051 40.0272L5.92838 40.1069C5.60156 40.3606 5.14537 40.7353 4.99331 40.8769C4.83443 41.0244 4.81628 41.048 4.81628 41.1365C4.81628 41.3548 5.03416 41.5318 5.30197 41.5318C5.76951 41.5318 6.73182 41.1748 7.11992 40.8562L7.26744 40.7382V40.8267C7.26744 40.8739 7.28333 40.9536 7.30149 41.0008C7.42405 41.3105 7.82577 41.2014 8.30238 40.7323C8.46352 40.573 8.46579 40.5789 8.31373 40.8385C7.853 41.635 7.09268 42.5614 6.61607 42.9065C6.36868 43.0865 5.98512 43.2841 5.4495 43.5083C5.17034 43.6263 4.90252 43.7473 4.85486 43.7797C4.75954 43.8417 4.72549 43.9272 4.72549 44.1072C4.72549 44.2871 4.79358 44.414 4.93884 44.4996C5.07955 44.5822 5.24977 44.6117 5.87164 44.6618C6.1213 44.6795 6.34145 44.7061 6.3596 44.7208C6.38457 44.7385 6.29833 44.8683 5.98512 45.2725C5.19303 46.2932 4.78904 46.6915 4.28292 46.9452C3.85397 47.1605 3.3365 47.2785 3.06642 47.2225C2.87123 47.1812 2.80995 47.2254 2.80087 47.4054C2.79634 47.5057 2.80541 47.5588 2.844 47.6178C2.89393 47.7033 3.16855 47.8951 3.32969 47.9629C3.37962 47.9836 3.46133 48.0278 3.50899 48.0573C3.5975 48.1163 3.64743 48.1222 4.51669 48.1901C4.71869 48.2048 5.02054 48.1429 5.38822 48.0101L5.5834 47.9393L5.57205 48.0367C5.56525 48.0957 5.57432 48.1694 5.59475 48.2225L5.62879 48.311L5.50624 48.4231C5.35644 48.5559 5.20438 48.7683 5.03643 49.0751C4.96834 49.202 4.88664 49.3347 4.85713 49.3731C4.82763 49.4085 4.60294 49.5353 4.36009 49.6563C3.69056 49.9867 3.3592 50.205 3.20713 50.4233L3.15266 50.5H25.7193H48.2859L48.4811 50.3613C49.1234 49.91 49.6998 49.3672 49.8814 49.0456C49.9858 48.8627 50.0153 48.7477 49.9926 48.612C49.9745 48.5028 49.9223 48.4969 49.718 48.5795C49.2073 48.789 48.5469 48.5677 47.7253 47.9128C47.5256 47.7505 47.1465 47.4142 47.0308 47.2903L46.9763 47.2313L47.1329 47.2726C47.3712 47.3346 47.9137 47.3582 48.152 47.3169C48.5128 47.2549 48.851 47.0838 49.1529 46.8124C49.2686 46.7092 49.2777 46.6915 49.221 46.7062C48.9259 46.78 48.7875 46.7918 48.6354 46.7593C48.4947 46.7269 48.3018 46.6236 48.3018 46.5794C48.3018 46.5705 48.3903 46.5174 48.4992 46.4614C48.8011 46.3079 49.2028 46.0395 49.3844 45.8713C49.5841 45.6884 49.6771 45.5085 49.6567 45.3462C49.6318 45.1486 49.5977 45.1397 49.423 45.2754C49.1824 45.4642 49.0167 45.5203 48.7216 45.5203C48.1747 45.5203 47.4189 45.2017 46.8992 44.7474C46.5406 44.4376 46.2296 43.942 46.1502 43.5585C46.1275 43.4493 46.1275 43.4464 46.2092 43.3933C46.3068 43.3284 46.384 43.2251 46.4044 43.1366C46.4203 43.0717 46.4203 43.0717 46.5292 43.1248C46.763 43.2428 46.9922 43.2812 47.369 43.2635C47.7525 43.2487 47.9613 43.1927 48.1996 43.0481C48.2677 43.0039 48.3245 42.9685 48.3245 42.9655C48.3245 42.9655 48.2269 42.9596 48.1089 42.9567C47.7888 42.9478 47.4121 42.818 47.2328 42.6499L47.167 42.5909L47.3372 42.4109C47.5097 42.2339 47.6844 41.9802 47.748 41.8209C47.782 41.7353 47.782 41.7353 47.7321 41.7678C47.6617 41.8179 47.428 41.8091 47.2555 41.753C46.7176 41.5731 46.0708 40.9182 45.6463 40.1246C45.4829 39.8207 45.4807 39.8325 45.6713 39.8089C46.0276 39.7617 46.3295 39.6142 46.4589 39.4225C46.5542 39.2838 46.561 39.1009 46.4725 38.9682L46.4135 38.8767H46.5156C46.7562 38.8767 47.1375 38.6879 47.3122 38.4785C47.4144 38.3575 47.4234 38.272 47.3327 38.2985C46.8833 38.4224 46.3545 38.3664 46.1615 38.1687C46.0708 38.0743 45.5419 37.2099 45.5919 37.2365C45.6895 37.2866 45.8688 37.3132 45.9686 37.2984C46.0413 37.2837 46.1161 37.2424 46.2024 37.1598C46.3045 37.0654 46.3408 37.0477 46.3953 37.0624C46.5519 37.1067 46.5996 36.9828 46.5111 36.7586C46.452 36.6081 46.3658 36.5137 46.1774 36.3869C45.8778 36.1863 45.7031 35.8883 45.5941 35.3927C45.5261 35.0888 45.4602 34.9089 45.3899 34.8499C45.3399 34.8086 45.3377 34.785 45.3104 34.077C45.2696 33.009 45.1947 32.3895 45.0676 32.065C45.0018 31.8909 44.936 31.826 44.8338 31.826C44.6364 31.826 44.5887 31.9706 44.5229 32.7553C44.4775 33.2981 44.4344 33.5843 44.3663 33.7849C44.3096 33.953 44.044 34.3779 43.8443 34.6227C43.6899 34.8145 43.6037 34.8617 43.3722 34.8941C43.1316 34.9236 43.0817 34.9708 43.0817 35.1596C43.0817 35.2776 43.093 35.3219 43.1498 35.4045C43.1861 35.4576 43.2565 35.5284 43.3087 35.5579C43.4562 35.6434 43.3904 35.6759 43.0749 35.6759C42.9228 35.6759 42.7685 35.6641 42.7299 35.6523L42.6618 35.6287L42.7186 35.6906C42.9228 35.9089 43.0953 35.9886 43.4108 36.0122L43.6604 36.0299L43.6741 36.2217C43.6877 36.4429 43.7126 36.5137 43.8102 36.614L43.8806 36.6848L43.7785 36.7999C43.6922 36.9002 43.2111 37.2542 43.1634 37.2542C43.1543 37.2542 43.1861 37.2099 43.2315 37.1568C43.4312 36.9297 43.4925 36.7232 43.3949 36.6052C43.3268 36.5226 43.202 36.5285 42.9932 36.6258C42.7685 36.7291 42.5733 36.7291 42.1829 36.6258C41.6609 36.4872 41.4158 36.3603 41.0164 36.021C40.8325 35.8647 40.34 35.2747 40.2379 35.0888L40.1902 35.0033L40.3763 35.021C40.4785 35.0298 40.5624 35.0269 40.5624 35.0151C40.5624 35.0033 40.5125 34.9295 40.449 34.8499C40.3877 34.7702 40.3355 34.6965 40.3355 34.6876C40.3355 34.6788 40.5579 34.6699 40.8303 34.6699C41.2025 34.667 41.3659 34.6522 41.5043 34.6139C41.8992 34.5047 42.0763 34.2864 41.9787 34.0238C41.9333 33.894 41.8743 33.8557 41.645 33.7908C41.5134 33.7524 41.4317 33.7052 41.3159 33.6049C41.0822 33.4014 41.005 33.3601 40.8121 33.3306C40.6078 33.3011 40.5647 33.2775 40.4353 33.1241C40.3854 33.0651 40.247 32.9323 40.1289 32.8291C39.7272 32.478 39.4481 32.183 39.3255 31.9765C39.2824 31.9057 39.2461 31.8378 39.2461 31.826C39.2461 31.8172 39.3119 31.8142 39.3959 31.8201C39.6637 31.8437 40.0064 31.7051 40.1108 31.5369C40.1653 31.4455 40.1675 31.2714 40.1176 31.2449C40.0972 31.236 40.0155 31.2419 39.9338 31.2626C39.8044 31.2921 39.7772 31.2921 39.7045 31.2449C39.6296 31.1977 39.5207 31.0177 39.5457 30.9853C39.5525 30.9764 39.6365 30.9853 39.7363 31.003C40.1948 31.0885 40.5534 30.8289 40.5693 30.4041L40.5738 30.2773H40.2901C40.0699 30.2743 39.986 30.2625 39.9156 30.2242C39.784 30.1475 39.7068 30.0383 39.6637 29.8672C39.6433 29.7846 39.6115 29.6784 39.5933 29.6312C39.5479 29.5161 39.3936 29.3037 39.3005 29.227L39.2257 29.168L39.3119 29.0589C39.3596 28.9999 39.4027 28.932 39.4072 28.9084C39.4163 28.8789 39.439 28.8878 39.5048 28.9468C39.6138 29.0441 39.7272 29.0707 39.8384 29.0264C39.9497 28.9822 39.995 28.8966 39.995 28.7285C39.995 28.5515 39.9338 28.401 39.7999 28.2476C39.6501 28.0765 39.5275 27.8169 39.4571 27.5189C39.4254 27.3803 39.3482 27.1236 39.2869 26.9437C39.1893 26.6605 39.1712 26.5808 39.1439 26.2652C39.0713 25.4745 38.8625 24.6898 38.7127 24.6397C38.5607 24.5895 38.4971 24.7341 38.4971 25.1235C38.4971 25.3506 38.4858 25.4273 38.4177 25.6781C38.3723 25.8374 38.3269 26.0675 38.3155 26.1885C38.286 26.4953 38.2384 26.6723 38.0886 27.0558C37.8412 27.6989 37.5825 28.2624 37.5098 28.3214C37.4735 28.3509 37.3442 28.4158 37.2261 28.4659C36.863 28.6193 36.7518 28.7314 36.7041 29.0028C36.6746 29.1798 36.6973 29.3096 36.7677 29.3716C36.8199 29.4158 36.838 29.4158 37.0105 29.3686C37.2375 29.3067 37.292 29.3067 37.3078 29.3598C37.326 29.4217 37.2625 29.5604 37.1739 29.6636C37.0582 29.7964 36.8698 29.9026 36.5725 30C36.425 30.0501 36.2865 30.1091 36.2616 30.1327C36.0959 30.292 36.0528 30.3245 35.9779 30.351C35.7804 30.4189 35.5807 30.6785 35.5194 30.9469C35.5058 31.0089 35.4831 31.059 35.4672 31.059C35.4195 31.059 35.1948 30.9646 35.1086 30.9056C35.0587 30.8732 35.0155 30.8555 35.0087 30.8614C35.0042 30.8702 35.0155 30.9174 35.0337 30.9676C35.0541 31.0148 35.07 31.062 35.07 31.0738C35.07 31.1003 34.918 31.0915 34.8544 31.059C34.8022 31.0325 34.7999 31.0354 34.8181 31.0826C34.893 31.2626 35.0836 31.3747 35.381 31.413C35.5035 31.4278 35.6624 31.4602 35.735 31.4868C35.8054 31.5104 35.9234 31.5517 35.9937 31.5753C36.0664 31.5989 36.1708 31.6195 36.2275 31.6225C36.316 31.6225 36.3228 31.6284 36.2865 31.6579C36.2638 31.6785 36.1617 31.7729 36.0618 31.8673C35.8349 32.0827 35.735 32.1388 35.5444 32.1624C35.3492 32.186 35.07 32.2833 34.9157 32.3777C34.8476 32.419 34.7296 32.5252 34.6547 32.6137C34.5775 32.7052 34.4686 32.8055 34.4118 32.8409C34.3301 32.891 34.3074 32.9205 34.3029 32.9884C34.287 33.1595 34.312 33.2067 34.4277 33.2214C34.489 33.2273 34.6433 33.2863 34.775 33.3453C34.9792 33.4427 35.0473 33.4604 35.2539 33.4722C35.4286 33.481 35.5262 33.4722 35.6102 33.4397L35.7282 33.3955L35.7418 33.4751C35.7736 33.6875 35.8031 33.776 35.8553 33.8291C35.9098 33.8852 35.9098 33.8911 35.878 33.9737C35.8213 34.1153 35.7169 34.2097 35.5966 34.2304C35.4241 34.2599 35.3991 34.2687 35.3356 34.3366C35.2879 34.3838 35.2743 34.4221 35.2743 34.5136C35.2743 34.6699 35.3015 34.7289 35.3923 34.7791C35.4944 34.8351 35.8848 34.8263 36.1572 34.7643C36.2729 34.7378 36.3728 34.7201 36.3773 34.723C36.3955 34.7496 36.0369 35.2511 35.8666 35.4399C35.508 35.8352 35.179 36.1007 34.7999 36.2954C34.6047 36.3957 34.5798 36.4016 34.4981 36.3721C34.4504 36.3515 34.4118 36.3308 34.4118 36.322C34.4118 36.3161 34.4368 36.26 34.4663 36.1981C34.4981 36.1391 34.5299 36.0535 34.5367 36.0092C34.5503 35.9414 34.5684 35.9266 34.657 35.9119C34.9543 35.8558 35.2516 35.7024 35.3401 35.5549C35.3991 35.4576 35.4036 35.2894 35.3492 35.254C35.3265 35.2393 35.238 35.2186 35.154 35.2068C34.8136 35.1626 34.5662 34.9797 34.2098 34.5106C33.8898 34.0888 33.6266 33.6551 33.4972 33.3365C33.4382 33.189 33.3587 33.0356 33.3224 32.9943C33.2385 32.9058 33.2385 32.8881 33.3134 32.8881C33.4291 32.8881 33.8331 32.7642 33.9148 32.7052C34.0442 32.6108 34.0805 32.4633 34.0147 32.2981C33.9715 32.1919 33.9171 32.1506 33.8104 32.1506C33.7627 32.1506 33.6651 32.1093 33.5721 32.0473C33.4858 31.9912 33.3928 31.944 33.3678 31.944C33.2907 31.944 33.2089 31.8142 33.2089 31.6933C33.2089 31.6195 33.1908 31.5664 33.1545 31.5163C33.1045 31.4514 33.1 31.4278 33.1114 31.2773L33.125 31.1121L33.0274 31.003L32.9275 30.8909L33.0001 30.7611C33.066 30.6401 33.0705 30.6136 33.075 30.3363C33.0819 30.0059 33.0455 29.4689 33.0138 29.404C33.0024 29.3804 32.9888 29.1297 32.982 28.8465C32.9661 28.2565 32.9525 28.1886 32.839 28.2034C32.7414 28.2152 32.696 28.342 32.6665 28.6695C32.6393 28.9586 32.5712 29.2418 32.4214 29.6548C32.3397 29.8819 32.3125 29.997 32.3011 30.1563C32.292 30.2743 32.2625 30.4307 32.233 30.5103L32.1831 30.6549L32.233 30.8112C32.2898 30.9912 32.2807 31.0502 32.1808 31.18C32.056 31.3452 31.9085 31.413 31.6838 31.413C31.5363 31.413 31.4795 31.4248 31.4523 31.4602C31.4046 31.5192 31.4069 31.6933 31.4545 31.7995C31.4954 31.888 31.686 32.0355 31.8722 32.1152L31.9856 32.1653L31.8041 32.3217C31.4704 32.6078 31.1822 32.7111 30.9961 32.6108C30.9325 32.5754 30.8735 32.5665 30.8032 32.5783C30.7351 32.5901 30.633 32.5754 30.499 32.5341C30.3878 32.5016 30.2925 32.478 30.288 32.4839C30.2653 32.5164 30.6602 32.953 30.7827 33.0326L30.9235 33.1241L30.8418 33.1683C30.751 33.2185 30.4083 33.3011 30.2834 33.3011C30.2131 33.304 30.2312 33.3188 30.406 33.4014C30.5195 33.4545 30.6375 33.5194 30.667 33.543C30.7487 33.6108 30.9507 33.6256 31.3252 33.5961C31.5068 33.5843 31.6588 33.5784 31.6656 33.5872C31.6951 33.6256 31.416 33.897 31.1572 34.0799C30.7669 34.3543 30.5853 34.4516 30.1336 34.6286C29.7251 34.7879 29.6775 34.7909 29.5413 34.6847C29.4982 34.6493 29.4278 34.6286 29.3642 34.6286C29.3052 34.6286 29.2372 34.6168 29.2145 34.5991C29.1918 34.5844 29.0692 34.549 28.9421 34.5254C28.815 34.5018 28.6902 34.4664 28.6652 34.4487C28.5926 34.3985 28.5926 34.4369 28.6629 34.605C28.8014 34.9413 29.2394 35.4074 29.6003 35.6051C29.8658 35.7526 30.372 35.8234 30.6557 35.7526C30.7351 35.7349 30.7578 35.7437 30.8327 35.8204C30.8803 35.8676 30.9847 35.9355 31.0664 35.9709L31.2162 36.0328L31.0256 36.2423C30.5467 36.7674 30.2494 36.9739 29.8114 37.0919C29.716 37.1185 29.6366 37.1332 29.6298 37.1273C29.6253 37.1185 29.6729 37.0034 29.7365 36.8677C29.8477 36.6288 29.8908 36.499 29.8658 36.4695C29.8545 36.4547 29.7138 36.5196 29.2008 36.7763C28.7083 37.0241 28.579 37.0595 28.1931 37.0388C27.7801 37.0182 27.5259 36.9592 27.1945 36.8087C27.0515 36.7438 26.7406 36.6081 26.5023 36.5049C26.2662 36.4016 25.9939 36.2718 25.9008 36.2099C25.7306 36.1037 25.5627 35.9443 25.5831 35.9148C25.5899 35.9089 25.6875 35.9325 25.8033 35.9709C26.2254 36.1154 26.4909 36.1273 27.1037 36.0299C27.2603 36.0033 27.4646 35.9709 27.5576 35.9561C27.7642 35.9266 27.8936 35.8706 28.1477 35.7142C28.3361 35.5962 28.3384 35.5933 28.2726 35.5667C28.2363 35.552 28.0433 35.5343 27.8459 35.5225L27.4896 35.5048L27.4442 35.4074C27.333 35.1744 27.0674 34.9502 26.6203 34.7142C26.4614 34.6316 26.3343 34.5578 26.3366 34.5549C26.3411 34.549 26.441 34.5814 26.559 34.6198C26.9607 34.7584 27.6121 34.7437 27.8255 34.5903C27.8731 34.5549 27.8709 34.549 27.7233 34.4221C27.5327 34.2599 27.3057 33.9707 27.2422 33.8114C27.1809 33.6551 27.1809 33.6551 27.2581 33.6551C27.4396 33.6551 27.8345 33.4486 28.1069 33.2096C28.3248 33.0208 28.6289 32.7081 28.6153 32.6875C28.6062 32.6786 28.4564 32.6314 28.2794 32.5842C27.8913 32.4839 27.3806 32.2951 26.9789 32.1063C26.4297 31.8496 25.7261 31.3599 25.4038 31.0059L25.3266 30.9204L25.6308 30.9027C26.4682 30.8555 27.1741 30.4838 27.3625 29.9911C27.4101 29.8672 27.4215 29.7964 27.4215 29.6135C27.4215 29.2919 27.4079 29.2742 27.1945 29.348C26.845 29.4689 26.5658 29.4601 25.9462 29.2978C25.658 29.2241 25.1859 29.0412 25.1655 28.9969C25.1587 28.9822 25.2063 28.9645 25.2722 28.9556C25.4469 28.9261 25.599 28.8524 25.6739 28.7521C25.7284 28.6813 25.742 28.64 25.742 28.5338C25.742 28.46 25.7306 28.3715 25.717 28.3391C25.692 28.2801 25.6966 28.2771 25.7669 28.2978C26.1437 28.3951 26.2799 28.4158 26.5931 28.4128C26.9902 28.4128 27.1695 28.3627 27.4578 28.1739C27.6121 28.0736 27.9004 27.8198 27.9299 27.7608C27.9344 27.749 27.7188 27.7402 27.4487 27.7402C26.8995 27.7402 26.6952 27.7048 26.3162 27.5425L26.0938 27.4511L26.3275 27.395C26.4546 27.3655 26.6226 27.3095 26.6975 27.2682C26.845 27.1915 27.047 27.0145 27.081 26.9289C27.1037 26.8699 27.1423 26.8817 26.5704 26.7814C26.3956 26.7519 26.0688 26.7047 25.8441 26.6782C25.3561 26.6221 25.1746 26.5749 25.018 26.4746C24.909 26.4009 24.8614 26.3094 24.934 26.3094C25.0021 26.3094 25.3879 26.0321 25.4719 25.923C25.5491 25.8226 25.5604 25.7902 25.5604 25.6781C25.5604 25.5129 25.5286 25.4804 25.2654 25.3772C24.9771 25.2651 24.648 25.0114 24.4733 24.7665L24.4188 24.6898L24.5867 24.7813C24.7229 24.858 24.7933 24.8757 24.959 24.8875C25.077 24.8934 25.1905 24.8845 25.2268 24.8668L25.2926 24.8344L25.0566 24.501C24.7819 24.1087 24.4528 23.5717 24.3416 23.3357C24.2236 23.0761 24.1964 22.9198 24.1964 22.5245C24.1986 22.2 24.1941 22.1675 24.1396 22.0436C24.0942 21.9404 24.0761 21.8548 24.0625 21.6424C24.042 21.3208 24.0125 21.2677 23.8764 21.3149ZM36.4068 36.8294C36.3682 36.8884 36.1027 37.1214 35.9257 37.2483L35.7963 37.3427L35.474 37.1745L35.1495 37.0034L35.2516 36.9828C35.3083 36.9739 35.4105 36.9621 35.4785 36.9621C35.6624 36.9592 36.1753 36.8766 36.3069 36.8294C36.3705 36.8058 36.425 36.7851 36.4295 36.7851C36.434 36.7822 36.4227 36.8028 36.4068 36.8294ZM42.5188 37.6731C42.5029 37.6937 42.3441 37.8648 42.167 38.0507C41.8652 38.3693 41.8448 38.3988 41.8448 38.4932C41.8448 38.5876 41.8538 38.5994 41.9356 38.6348C42.0513 38.685 42.3373 38.6643 42.7753 38.5699C42.9501 38.5316 43.0953 38.505 43.0999 38.508C43.1044 38.5109 43.0545 38.5876 42.9932 38.6761C42.8661 38.8561 42.8411 38.8738 42.5597 38.9682C42.1897 39.0921 41.9015 39.272 41.8107 39.4372C41.7835 39.4903 41.7653 39.567 41.7653 39.6467C41.7653 39.7558 41.7789 39.7883 41.8629 39.8915C41.9492 40.0007 42.217 40.1954 42.4281 40.3046L42.5143 40.3488L42.4462 40.5317C42.4099 40.632 42.3622 40.8061 42.3395 40.9182C42.3146 41.045 42.2896 41.1158 42.2737 41.107C42.2578 41.0981 42.049 40.8916 41.8039 40.6409L41.3636 40.1895L41.4544 40.1747L41.5452 40.16L41.123 39.6467C40.8893 39.3635 40.7032 39.1275 40.7077 39.1216C40.7122 39.1157 40.8166 39.157 40.9392 39.213C41.0618 39.272 41.1639 39.3163 41.1662 39.3104C41.1684 39.3074 41.0254 39.0773 40.8461 38.803C40.6646 38.5257 40.5193 38.2956 40.5171 38.2867C40.5171 38.2572 40.9483 38.2897 41.1571 38.331C41.266 38.3516 41.4135 38.4047 41.4839 38.446C41.5543 38.4873 41.6201 38.5227 41.6314 38.5227C41.7041 38.5227 41.6473 38.1097 41.5384 37.8471C41.4998 37.7586 41.4726 37.6819 41.4771 37.679C41.4816 37.6731 41.5838 37.679 41.7086 37.6937C41.9129 37.7173 42.4848 37.6878 42.5098 37.6524C42.5166 37.6436 42.5279 37.6377 42.5347 37.6377C42.5415 37.6377 42.5325 37.6554 42.5188 37.6731ZM35.9325 38.2985C35.9325 38.3044 35.8666 38.3782 35.7849 38.4608L35.6374 38.6112L35.3946 38.4519L35.1495 38.2897H35.5421C35.7554 38.2867 35.9325 38.2926 35.9325 38.2985ZM28.091 38.8177C28.1886 38.9475 28.2658 39.0567 28.259 39.0655C28.2295 39.1068 27.7256 39.3723 27.7143 39.3546C27.7052 39.3428 27.6779 39.2573 27.6507 39.1599C27.603 38.9947 27.603 38.9829 27.6416 38.9239C27.7143 38.8089 27.8845 38.5817 27.8981 38.5817C27.9049 38.5817 27.9911 38.6879 28.091 38.8177ZM35.3197 39.452C35.3197 39.4608 35.272 39.5611 35.213 39.6762L35.1063 39.8827L34.9407 39.6673C34.8499 39.5493 34.775 39.449 34.775 39.4461C34.775 39.4402 34.8975 39.4372 35.0473 39.4372C35.1971 39.4372 35.3197 39.4431 35.3197 39.452ZM14.015 40.4668C14.024 40.4786 13.9832 40.5583 13.9242 40.6438L13.8152 40.7972L13.6677 40.6025L13.5202 40.4108L13.7585 40.4285C13.8901 40.4403 14.0036 40.458 14.015 40.4668ZM12.9187 41.4138C12.9187 41.4226 12.8348 41.458 12.7326 41.4934L12.5443 41.5583L12.4739 41.458C12.4058 41.3607 12.2833 41.0657 12.2833 41.0008C12.2833 40.9713 12.9165 41.3813 12.9187 41.4138ZM14.251 43.349C14.3826 43.3874 14.537 43.3992 14.8638 43.4021H15.2973L15.0022 43.706L14.7072 44.0098L14.6368 43.9597C14.4938 43.8653 14.2896 43.6706 14.1511 43.4995C14.0127 43.3284 13.9718 43.2487 14.0399 43.2812C14.0581 43.29 14.1534 43.3225 14.251 43.349Z" fill="#07151F"/>
<path d="M16.7352 18.1999C15.9352 18.1999 1.73324 18.2998 1.43517 18.1999C1.13711 18.1 0.936352 16.1 2.03615 15.6C3.17377 15.0827 4.13517 15.8999 4.13517 15.8999C4.55832 14.8228 5.13518 14.1 6.43518 14.1C8.23518 14.2 8.43518 15.8999 8.43518 15.8999C8.93518 15.7 9.43518 15.8 9.93518 16.3999C10.1567 16.6657 10.1352 15.6 11.4352 15.6C12.7352 15.6 13.5352 17.3999 13.5352 17.3999C15.4607 17.4179 17.5352 18.1999 16.7352 18.1999Z" fill="#D9D9D9"/>
<path d="M45.9765 21.2108C45.3773 21.2108 39.2773 21.3108 38.8765 21.2108C38.4757 21.1108 39.7765 20.9108 39.7765 20.9108C39.7765 20.9108 40.1065 20.5528 40.3765 20.4108C40.763 20.2077 41.4765 20.2108 41.4765 20.2108C41.4765 20.2108 41.8773 19.6108 42.5765 19.5108C43.3693 19.3975 43.5765 20.2108 43.5765 20.2108C43.5765 20.2108 44.1783 20.0248 44.4765 20.2108C44.7436 20.3775 44.8765 20.9108 44.8765 20.9108C44.8765 20.9108 46.5757 21.2108 45.9765 21.2108Z" fill="#D9D9D9"/>
<path d="M38.4997 18.3026C37.9997 18.5026 29.5999 18.2025 29.5999 18.2025C29.5999 18.2025 29.3999 18.113 29.3999 18.0025C29.3999 17.8921 29.5999 17.8025 29.5999 17.8025L35.1999 17.7025C35.1999 17.7025 35.8782 17.0542 36.3999 17.1025C36.9526 17.1538 37.2997 18.0025 37.4999 18.0025C37.7001 18.0025 37.6997 17.6026 38.1999 17.6025C38.4578 17.6025 38.5997 17.7026 38.5997 17.7026C38.5997 17.7026 38.9997 18.1026 38.4997 18.3026Z" fill="#D9D9D9"/>
</g>
<rect x="1" y="1.5" width="48" height="48" rx="24" stroke="url(#paint1_linear_71_177)" stroke-width="2"/>
<path d="M37.122 23.3672C37.0403 23.5214 37.0494 23.5668 37.2218 23.6575C37.3397 23.712 37.6845 23.966 38.0021 24.211C38.6645 24.7282 38.7734 24.583 38.2017 23.9207C37.5031 23.1312 38.0656 23.4216 39.0365 24.3562C39.708 25.0095 40.0165 25.6174 40.0165 26.307C40.0165 26.8968 39.9348 26.9422 39.4811 26.6337C39.2634 26.4885 39.0456 26.3706 39.0093 26.3706C38.973 26.3706 38.7552 26.0167 38.5284 25.5721C38.0293 24.6193 37.2036 23.6484 36.877 23.6484C36.5957 23.6484 36.5957 23.8662 36.877 23.9932C36.9949 24.0477 37.1855 24.2201 37.3034 24.3925L37.5121 24.6919L37.2853 24.5014C36.9496 24.2019 36.4687 23.9842 36.3688 24.084C36.3235 24.1293 36.269 24.4651 36.2418 24.8371C36.1874 25.563 36.0513 26.1256 35.9333 26.0802C35.897 26.0621 35.7246 25.8715 35.5613 25.6537C35.0441 24.9823 34.7356 24.8734 33.3019 24.8825C32.0588 24.8915 30.5617 25.1275 29.9084 25.4178C29.6271 25.5449 29.6361 25.5449 30.1261 25.5086C30.3983 25.4813 31.1152 25.445 31.7231 25.4178L32.821 25.3725L32.6033 26.0167C32.3764 26.6972 32.3764 26.9331 32.6123 26.4885C32.7394 26.2254 33.4834 25.6537 33.4834 25.8171C33.4834 25.8624 33.4199 25.9441 33.3473 26.0076C33.0842 26.2254 33.2112 26.2708 33.6014 26.0983C34.0641 25.8806 34.4906 25.8715 34.8445 26.053C35.162 26.2163 35.2437 26.4522 35.162 26.9876C35.0622 27.6863 34.908 27.9403 34.0913 28.7388C33.066 29.746 32.9481 30.1452 33.3019 31.3067C33.5469 32.0689 33.674 32.1596 33.5106 31.4246C33.438 31.1161 33.3927 30.6443 33.4199 30.3721C33.4471 29.9547 33.5016 29.8458 33.7465 29.6462C33.9008 29.5191 34.2093 29.256 34.4271 29.0655C34.7447 28.7932 34.8898 28.7297 35.1983 28.7297C35.398 28.7297 35.5704 28.6844 35.5704 28.639C35.5704 28.4757 36.0331 28.5483 36.7227 28.8205C37.376 29.0836 37.4214 29.0927 37.5757 28.9475C37.6755 28.8568 37.7299 28.7751 37.7118 28.7479C37.6845 28.7297 37.6029 28.7751 37.5212 28.8568C37.2218 29.1562 37.2127 28.884 37.5031 28.521C37.8206 28.1309 38.2108 27.4322 38.3832 26.9694C38.474 26.7154 38.483 26.7154 38.6554 26.8696C38.8006 27.0057 38.8278 27.1418 38.8188 27.6772C38.8006 28.4484 38.7734 28.512 38.5647 28.3214C38.4286 28.2035 38.4014 28.1944 38.356 28.3123C38.3197 28.394 38.3741 28.4575 38.5012 28.4938C38.7189 28.5483 38.9276 28.4122 38.9276 28.1944C38.9276 28.0038 39.5174 27.3687 39.6898 27.3687C39.8713 27.3687 40.1072 27.0148 40.198 26.6065C40.2887 26.2072 40.1526 25.3543 39.9258 24.9188C39.5628 24.211 38.4104 23.3944 37.5484 23.2401C37.2762 23.1857 37.2036 23.2038 37.122 23.3672ZM37.5575 26.2163C37.4395 26.3343 37.3216 26.4069 37.2944 26.3887C37.249 26.3524 37.6392 26.0076 37.7299 26.0076C37.7571 26.0076 37.6755 26.0983 37.5575 26.2163ZM39.4539 27.1691C39.4721 27.2326 39.4448 27.2779 39.3813 27.2779C39.2724 27.2779 38.846 26.8242 38.8369 26.6972C38.8369 26.5974 39.4085 27.0329 39.4539 27.1691Z" fill="#D9D9D9"/>
<path d="M25.5254 26.3615C25.1625 26.5521 24.5727 26.9241 24.2097 27.1872L23.5655 27.659L18.2483 27.9948L12.9311 28.3214L17.9851 28.3487L23.0392 28.3668L22.894 28.757C22.6581 29.4012 22.7398 30.6443 23.1027 31.5698C23.1753 31.7604 21.2335 31.842 20.2354 31.6878C19.809 31.6243 19.3916 31.588 19.3099 31.6152C18.9742 31.6969 19.1557 31.9237 19.7727 32.1959C20.2536 32.4137 20.426 32.5407 20.5167 32.7585C20.6074 32.9581 20.7254 33.0488 20.9069 33.0851C21.1519 33.1305 21.1882 33.185 21.3424 33.7657C21.4332 34.1105 21.533 34.5732 21.5602 34.7819L21.5965 35.154L20.671 35.2084C20.1538 35.2447 16.8963 35.3717 13.4301 35.4988C3.27662 35.8708 3.27662 35.8708 12.9038 35.8889L21.7689 35.898L21.8778 36.2791C22.0229 36.8417 21.8868 37.1865 21.0974 38.1483C20.7163 38.602 20.3806 38.9831 20.3534 38.9831C20.3262 38.9831 20.0721 38.847 19.7908 38.6746C19.5095 38.5022 18.956 38.2481 18.5568 38.1029C17.8944 37.8761 17.722 37.8488 16.5606 37.8488C15.3991 37.8488 15.2267 37.8761 14.5643 38.1029C12.9764 38.6564 11.5791 39.8723 10.8895 41.2878C10.5356 42.0137 10.2543 42.9029 10.2543 43.3112C10.2543 43.4473 10.1908 43.529 10.0547 43.5562C9.93674 43.5834 8.14921 43.7286 6.0804 43.8829C4.01159 44.0371 2.25129 44.1732 2.1787 44.1914C2.10611 44.2095 3.86641 44.2277 6.08948 44.2368L10.1454 44.2458L10.1999 44.4455C10.2271 44.5634 10.2543 44.7812 10.2543 44.9264C10.2543 45.4073 10.5175 46.2602 10.8895 47.0224C11.325 47.9207 12.2415 48.946 13.1307 49.5177L13.7386 49.9169L9.89137 50.0621C7.76812 50.1438 4.71027 50.2617 3.08607 50.3162C1.46187 50.3797 0.0735912 50.4432 0.00100129 50.4523C-0.0715886 50.4704 3.81197 50.4886 8.63012 50.4976C17.105 50.5067 17.4135 50.4976 18.1122 50.3252C19.3099 50.0258 20.0721 49.5812 21.0158 48.6466C21.5965 48.0749 21.9231 47.6485 22.1409 47.222L22.4494 46.6231L22.6763 46.9952C22.9485 47.467 23.4657 48.0296 23.7923 48.202C24.1371 48.3835 24.618 48.3562 24.8721 48.1566C25.0717 48.0024 25.0717 47.9661 24.9538 47.7301C24.8812 47.585 24.8086 47.4398 24.7904 47.3944C24.7723 47.3581 24.863 47.3309 24.9991 47.3309C25.3349 47.3309 25.9065 47.0133 26.1243 46.7139C26.6506 45.9698 26.5689 45.0897 25.8974 44.4455L25.4982 44.0644L25.6434 43.7649C25.843 43.3838 26.8683 42.3766 27.9481 41.5146C29.6449 40.1627 32.2853 38.1664 32.3852 38.1664C32.4396 38.1664 32.5394 38.2844 32.6211 38.4386L32.7572 38.7018L32.2218 39.0647C30.5523 40.1989 29.4634 42.4402 29.6086 44.4727C29.6721 45.371 30.0078 46.4598 30.4615 47.2311C30.8971 47.9751 31.8317 48.9097 32.5666 49.3453L33.1383 49.6719L32.739 49.7264C32.5303 49.7627 31.3689 49.8625 30.1802 49.9623C28.9825 50.0621 27.9844 50.171 27.9572 50.1982C27.9299 50.2254 29.9262 50.2345 32.3942 50.2163C37.4211 50.18 37.2033 50.2073 38.6097 49.4814C39.6532 48.946 40.6876 47.9025 41.1776 46.8681C41.6767 45.8428 41.8309 45.1713 41.8309 44.0916C41.8309 43.0572 41.6857 42.3857 41.2502 41.4783C40.4426 39.7725 38.8819 38.5203 37.0581 38.112C36.2415 37.9305 34.708 37.9759 34.0003 38.1937L33.5647 38.3298L33.3833 38.0485C33.2925 37.8851 33.2109 37.6492 33.2109 37.5131C33.2109 37.3135 33.2653 37.2591 33.5103 37.2137C33.6645 37.1774 33.846 37.1139 33.9005 37.0685C33.9549 37.0231 34.3269 36.9596 34.7171 36.9415C35.5337 36.887 35.806 36.7146 35.8876 36.1793C35.9239 35.9978 36.0237 35.6712 36.1235 35.4443C36.2687 35.1086 36.305 34.8817 36.2778 34.2647C36.2415 33.3211 36.3504 33.2666 36.8313 33.9834C37.2215 34.5732 37.6116 34.8908 37.7568 34.7456C37.8203 34.6821 37.7749 34.5914 37.5753 34.4462C37.2487 34.2194 37.0218 33.811 36.7859 33.0398C36.6952 32.7403 36.5772 32.4409 36.5137 32.3683C36.3594 32.1959 36.2143 32.3229 35.7787 32.9763C35.4611 33.4481 35.2162 33.6205 34.6445 33.7657C34.4267 33.8201 34.3904 33.7929 34.1999 33.3664C33.9095 32.6768 33.8642 32.8855 34.1545 33.6023C34.2906 33.9653 34.4903 34.2919 34.6264 34.3918C34.8623 34.5551 34.8623 34.5551 34.7988 34.3645C34.7443 34.1921 34.7715 34.174 35.1889 34.174C35.6698 34.174 35.7515 34.2466 35.7515 34.6912C35.7515 35.036 35.4793 35.5713 35.3613 35.4534C35.1708 35.2628 35.0982 35.3536 35.2434 35.5804C35.4793 35.9343 35.316 36.0432 35.0075 35.7437L34.7352 35.4897L34.8895 35.7891C35.0982 36.2156 34.9802 36.2609 34.6627 35.8889L34.3904 35.5804L34.5175 35.9161C34.6445 36.2247 34.6264 36.3517 34.4721 36.3517C34.4358 36.3517 34.336 36.1339 34.2543 35.8708C34.1636 35.6167 33.8823 34.9453 33.6101 34.4008C33.347 33.8473 32.9477 32.9763 32.7209 32.45L32.3035 31.4972L32.6301 31.8602L32.9568 32.2231L32.5213 31.4065C31.8317 30.118 31.8226 30.0817 31.8317 29.6734C31.8498 29.3377 32.1583 28.149 32.3489 27.6953C32.4124 27.5411 32.3942 27.532 32.1129 27.5865C31.9405 27.6137 31.2328 27.6772 30.5341 27.7226C29.1368 27.8224 28.6286 27.9585 28.0842 28.3849C27.8846 28.5392 27.6668 28.7116 27.5942 28.766C27.3765 28.9384 27.7575 28.2579 28.0751 27.9313L28.3564 27.6318L28.0842 27.6863C27.5398 27.8133 26.7594 28.2216 26.5326 28.4848C26.0335 29.0836 26.0335 29.0927 27.0952 30.118C27.6305 30.6262 28.3201 31.3702 28.6286 31.7694C29.409 32.7766 30.6702 34.7003 30.6702 34.8908C30.6702 35.1993 30.2528 35.6712 29.5814 36.1158C28.801 36.633 25.0445 39.3188 24.9084 39.464C24.7995 39.5729 25.9882 38.9286 26.342 38.6836C26.4872 38.5929 26.6143 38.5203 26.6324 38.5385C26.6687 38.5838 26.3148 39.4277 25.6161 40.9611C25.2623 41.7324 25.0808 42.0409 25.0354 41.9502C24.9901 41.8776 24.8902 41.4058 24.8086 40.8976C24.6634 40.0628 24.6362 39.9721 24.4366 39.9267C24.1916 39.8632 23.7923 39.3823 23.756 39.1101C23.7379 38.974 24.0101 38.6927 24.8177 38.0303C25.4165 37.5313 26.2513 36.8326 26.6778 36.4606C27.1042 36.0885 27.8574 35.5169 28.3564 35.1902C28.8555 34.8636 29.2819 34.5823 29.3001 34.5642C29.3182 34.5551 28.9916 34.2103 28.556 33.811C27.9844 33.2757 25.0354 30.1453 24.7995 29.8277C24.7814 29.8095 24.7541 29.8095 24.736 29.8277C24.7178 29.8458 25.0173 30.3086 25.4075 30.8621C25.7976 31.4065 26.1061 31.8783 26.0789 31.8965C26.0245 31.96 24.9175 30.8893 24.6271 30.4901C24.4729 30.2723 24.2914 29.9093 24.2279 29.6825C23.9466 28.6844 24.8358 27.0511 26.1334 26.171C26.5326 25.8987 26.1969 25.9986 25.5254 26.3615ZM29.9806 30.8802C29.7628 31.225 29.5814 31.5698 29.5814 31.6696C29.5814 31.7604 30.0623 32.6315 30.643 33.6023C31.7681 35.4806 31.7863 35.526 31.1693 35.535C30.8971 35.535 30.8971 35.535 30.9243 35.0814C30.9515 34.7456 30.9061 34.5279 30.761 34.2375C30.4252 33.5933 29.2275 31.8057 28.6649 31.1161C28.3655 30.7623 28.1296 30.4447 28.1296 30.4175C28.1296 30.3358 28.5288 30.2995 29.4634 30.2814L30.3889 30.2723L29.9806 30.8802ZM31.2872 30.7895L31.4959 31.2069L31.1965 31.5154C31.0422 31.6787 30.8517 31.8148 30.7882 31.8148C30.7247 31.8148 30.8608 32.087 31.1058 32.4228C31.3507 32.7676 31.7046 33.2938 31.8952 33.6114C32.0857 33.9199 32.2581 34.1649 32.2763 34.1468C32.3398 34.0742 31.7137 32.6496 31.4324 32.2594L31.1421 31.842L31.3961 31.6878L31.6502 31.5426L31.9678 32.1052C32.4668 33.0035 33.0475 34.1921 33.0022 34.2284C32.984 34.2466 32.6664 34.2919 32.2944 34.3192C31.9224 34.3555 31.5776 34.419 31.5141 34.4643C31.4415 34.5188 31.3326 34.419 31.1602 34.1105C31.0241 33.8746 30.7791 33.4481 30.6248 33.1759C29.9806 32.087 29.8445 31.7513 29.9443 31.4791C30.026 31.2613 30.9061 30.363 31.0332 30.3721C31.0604 30.3721 31.1693 30.5626 31.2872 30.7895ZM23.8377 33.8564C24.1008 34.7003 24.3186 35.4534 24.3186 35.5078C24.3186 35.6349 23.6109 35.653 22.8305 35.5532L22.3859 35.4897L22.1318 34.7184C21.9957 34.2919 21.8505 33.7747 21.8233 33.566C21.7689 33.2575 21.6963 33.1487 21.4513 33.0035C21.0067 32.7403 21.0702 32.6315 21.6691 32.6224C21.9594 32.6224 22.3587 32.5498 22.5946 32.45C23.3205 32.1415 23.3114 32.1324 23.8377 33.8564ZM26.5326 33.8927L26.8774 34.1105L26.8139 34.8001C26.7776 35.1812 26.7231 35.526 26.6868 35.5623C26.6415 35.5986 26.333 35.6258 25.9882 35.6076L25.3621 35.5804L25.2078 34.9453C25.1171 34.5914 25.0627 34.2738 25.0717 34.2284C25.0899 34.1831 25.2169 34.3373 25.353 34.5732C25.4891 34.8091 25.6252 34.9906 25.6434 34.9725C25.6797 34.9362 25.226 33.3029 25.0808 32.9581C25.0354 32.8492 25.2169 32.94 25.598 33.2303C25.9156 33.4753 26.333 33.7747 26.5326 33.8927ZM28.0751 34.5006L28.3383 34.5642L27.9118 34.7819C27.6668 34.8999 27.4581 34.9816 27.4309 34.9543C27.4037 34.9362 27.4127 34.7819 27.449 34.6277C27.4944 34.4281 27.5489 34.3645 27.6577 34.3918C27.7485 34.419 27.9299 34.4643 28.0751 34.5006ZM33.601 35.3536C33.7462 35.7256 33.9277 36.0976 34.0003 36.1884C34.1182 36.3154 34.1092 36.3426 33.964 36.388C33.8642 36.4152 33.7008 36.5695 33.592 36.7146C33.3288 37.0594 33.1746 37.0594 32.9568 36.6874C32.7844 36.4152 32.3035 35.154 32.3035 34.9906C32.3035 34.8999 33.0203 34.6367 33.2109 34.6549C33.2835 34.664 33.4559 34.9634 33.601 35.3536ZM26.2241 36.1521C26.2241 36.1884 26.0789 36.3608 25.9065 36.5332C25.7341 36.7056 25.5889 36.7963 25.5889 36.7419C25.5889 36.6874 25.5617 36.515 25.5345 36.3608C25.48 36.0795 25.48 36.0795 25.8521 36.0795C26.0517 36.0795 26.2241 36.1158 26.2241 36.1521ZM24.736 36.7781C24.8267 37.123 24.9084 37.4133 24.9084 37.4405C24.9084 37.4678 24.618 37.7581 24.2551 38.0938C23.511 38.7925 23.1844 38.8923 23.0846 38.4568C23.0574 38.3207 22.9485 37.9033 22.8577 37.5131C22.6763 36.7963 22.64 36.3335 22.7488 36.2337C22.7761 36.1974 23.2025 36.1702 23.6834 36.1702H24.5636L24.736 36.7781ZM31.5231 36.3698C31.7591 36.7056 31.6955 36.9687 31.2872 37.3952C30.7519 37.9577 25.5708 42.2496 25.4347 42.2496C25.3621 42.2496 25.4528 42.0228 25.6434 41.678C25.9337 41.1698 26.8865 39.2371 27.3039 38.3025C27.449 37.9759 27.6214 37.8488 28.9553 37.0685C30.2982 36.27 30.4887 36.1884 30.9152 36.1793C31.3054 36.1702 31.4143 36.2065 31.5231 36.3698ZM21.778 39.4095C21.9867 39.6545 22.395 40.3441 22.7035 40.9521L23.2479 42.0591L23.0755 42.5853L22.894 43.1116L22.6944 42.4311C22.404 41.4602 21.9322 40.6163 21.3061 39.9358C20.7708 39.3551 20.7617 39.3369 20.916 39.1645C21.17 38.8833 21.3696 38.9468 21.778 39.4095ZM17.7311 39.4821C18.3027 39.6364 19.2373 40.0628 19.2373 40.1717C19.2373 40.208 19.0105 40.5619 18.7292 40.9521C16.9144 43.5018 17.1504 43.2386 16.7148 43.2296C16.2158 43.2205 15.88 43.4564 15.7076 43.9464C15.5897 44.273 15.5987 44.3366 15.753 44.6632C16.1341 45.4526 17.1594 45.498 17.5768 44.7449C17.6494 44.6269 17.7946 44.636 18.829 44.7903C20.7254 45.0715 21.1791 45.1804 21.2154 45.371C21.2335 45.4526 21.1065 45.8337 20.925 46.2058C20.1265 47.8935 18.4388 48.9642 16.5696 48.9642C12.1689 48.9642 10.0728 43.5199 13.3394 40.5891C14.528 39.5184 16.2248 39.092 17.7311 39.4821ZM36.8948 39.6182C37.7931 39.8541 38.4373 40.2352 39.1088 40.9521C41.4498 43.4473 40.361 47.5305 37.0853 48.5286C36.5681 48.6829 36.305 48.7101 35.4974 48.6738C34.4449 48.6194 34.0275 48.5014 33.2472 48.0024C32.1492 47.3127 31.2872 45.9789 31.133 44.7449C30.9061 42.8848 31.6774 41.2152 33.229 40.1808L33.592 39.9449L33.8097 40.208C33.9277 40.3623 34.0275 40.5075 34.0275 40.5437C34.0275 40.571 33.8551 40.698 33.6373 40.825C33.102 41.1426 32.4759 41.8322 32.1855 42.4402C31.0876 44.6814 32.4487 47.3944 34.9167 47.8753C35.9058 48.0749 37.1579 47.8118 37.7931 47.2855L38.0653 47.0587L37.6116 47.2674C37.2396 47.4307 36.9946 47.467 36.2052 47.467C35.325 47.467 35.2071 47.4489 34.6354 47.1766C33.8914 46.8228 33.2744 46.2148 32.8933 45.4617C32.6392 44.9627 32.6211 44.8628 32.6211 43.8829C32.6211 42.912 32.6392 42.8031 32.8842 42.3403C33.229 41.687 33.4468 41.4058 33.8551 41.07L34.1999 40.7978L34.5084 41.315C34.6717 41.6054 34.9439 42.1589 35.1073 42.5581C35.3976 43.2659 35.3976 43.2659 35.2252 43.4383C34.6717 43.9464 35.0165 44.7903 35.7697 44.7903C36.6226 44.7903 36.8857 43.6923 36.1326 43.3022C35.933 43.2023 35.8513 43.0662 35.7697 42.7214C35.7152 42.4765 35.5065 41.8867 35.2978 41.4239C35.0982 40.9521 34.9349 40.5437 34.9349 40.5075C34.9349 40.4802 35.0438 40.4076 35.1889 40.3532C35.4339 40.2625 35.4339 40.2625 35.1254 40.2806C34.8623 40.2988 34.7897 40.2534 34.6354 39.9993C34.4267 39.6545 34.454 39.6092 34.9076 39.5275C35.5337 39.4005 36.1689 39.4368 36.8948 39.6182ZM20.2264 41.0428C20.7708 41.6507 21.2154 42.6126 21.3424 43.4473C21.4785 44.3638 21.3787 44.6541 20.9341 44.5816C20.7708 44.5543 19.9904 44.4364 19.1829 44.3275L17.722 44.1188L17.604 43.8375C17.5315 43.6923 17.4861 43.5199 17.4861 43.4655C17.4861 43.3294 19.6729 40.6163 19.7727 40.6163C19.818 40.6163 20.0267 40.8069 20.2264 41.0428ZM23.6744 43.2749C23.8649 43.8829 23.874 43.9736 23.7651 44.3819C23.6925 44.6179 23.5927 44.8356 23.5292 44.8538C23.3568 44.9173 23.0301 44.3456 22.9757 43.9101C22.9394 43.6107 22.9848 43.3929 23.139 43.0572C23.257 42.8122 23.3749 42.6126 23.4112 42.6126C23.4475 42.6126 23.5655 42.912 23.6744 43.2749ZM16.2067 43.7105C15.9345 44.0281 15.9163 44.2368 16.1069 44.5997C16.2611 44.8991 16.3972 44.9717 16.86 44.9808C17.1685 44.9808 17.1776 44.9899 16.978 45.0715C16.3337 45.3256 15.6441 44.636 15.8891 43.9827C15.9435 43.8557 16.0706 43.6742 16.1795 43.5925C16.4698 43.3657 16.4698 43.3929 16.2067 43.7105ZM25.725 44.7903C25.9519 45.0262 25.97 45.0806 25.8611 45.1532C25.6615 45.2802 25.353 45.2621 25.2351 45.1169C25.108 44.9627 25.2532 44.8356 25.4347 44.9354C25.5254 44.9899 25.5254 44.9717 25.4347 44.8719C25.2986 44.7358 25.2804 44.518 25.3893 44.518C25.4347 44.518 25.5799 44.6451 25.725 44.7903ZM24.1371 44.7903C24.1371 44.8901 24.0827 44.9717 24.0101 44.9717C23.9284 44.9717 23.9012 44.9082 23.9284 44.7903C23.9557 44.6904 24.0101 44.6088 24.0555 44.6088C24.1008 44.6088 24.1371 44.6904 24.1371 44.7903ZM25.6071 45.988C25.5799 46.115 25.5889 46.1604 25.6615 46.115C25.725 46.0787 25.7704 45.9789 25.7795 45.8972C25.7795 45.7884 25.7976 45.7793 25.8339 45.87C25.8793 45.9698 25.8974 45.9698 25.9609 45.87C26.0154 45.7702 26.0426 45.7884 26.0426 45.9335C26.0426 46.1876 25.598 46.7774 25.3984 46.7865C25.2441 46.7865 25.2351 46.3237 25.3893 46.0696C25.5708 45.743 25.6887 45.6976 25.6071 45.988ZM24.6816 46.478C24.6816 46.5143 24.5999 46.5143 24.5001 46.487C24.4003 46.4598 24.3368 46.478 24.373 46.5233C24.4003 46.5687 24.4729 46.605 24.5364 46.605C24.609 46.605 24.6816 46.6867 24.7088 46.7865C24.7451 46.9226 24.7088 46.9679 24.5908 46.9679C24.3368 46.9679 24.1371 46.7139 24.1371 46.4145V46.1422L24.4093 46.2874C24.5636 46.3691 24.6816 46.4507 24.6816 46.478Z" fill="#D9D9D9"/>
<path d="M15.4536 40.3895C14.147 40.7433 13.1216 41.7233 12.7587 42.9664C12.5681 43.6016 12.5772 44.6178 12.7587 45.253C13.4755 47.6757 16.5152 48.7373 18.5568 47.2946C18.7564 47.1494 18.8381 47.0677 18.7383 47.104C17.7492 47.4851 17.5405 47.5305 16.7874 47.4942C16.1976 47.467 15.8891 47.4035 15.4899 47.222C14.773 46.8863 14.0381 46.1694 13.6751 45.4345C13.4029 44.881 13.3848 44.7812 13.3848 43.8829C13.3848 42.9936 13.4029 42.8847 13.6751 42.3403C14.1288 41.4057 14.8638 40.7615 15.871 40.3895C16.3065 40.2261 16.0434 40.2352 15.4536 40.3895Z" fill="#D9D9D9"/>
<path d="M37.8384 28.6481C37.8384 28.6934 37.8837 28.7116 37.9291 28.6844C37.9836 28.6571 38.0199 28.6118 38.0199 28.5845C38.0199 28.5664 37.9836 28.5482 37.9291 28.5482C37.8837 28.5482 37.8384 28.5936 37.8384 28.6481Z" fill="#D9D9D9"/>
<path d="M58.9975 35.5V17.3182H65.6559C66.9461 17.3182 68.0144 17.5312 68.8608 17.9574C69.7071 18.3776 70.3404 18.9487 70.7607 19.6708C71.1809 20.387 71.391 21.1948 71.391 22.0945C71.391 22.852 71.2519 23.4912 70.9737 24.0121C70.6955 24.527 70.3227 24.9413 69.8551 25.255C69.3935 25.5627 68.8845 25.7876 68.3281 25.9297V26.1072C68.9318 26.1368 69.5207 26.3321 70.0948 26.6932C70.6748 27.0483 71.1542 27.5543 71.533 28.2113C71.9118 28.8683 72.1012 29.6673 72.1012 30.6083C72.1012 31.5375 71.8822 32.372 71.4442 33.1119C71.0122 33.8458 70.3434 34.4287 69.4379 34.8608C68.5323 35.2869 67.3752 35.5 65.9666 35.5H58.9975ZM61.7408 33.1474H65.7003C67.0142 33.1474 67.9553 32.8929 68.5234 32.3839C69.0916 31.8749 69.3757 31.2386 69.3757 30.4751C69.3757 29.901 69.2307 29.3743 68.9407 28.8949C68.6507 28.4155 68.2364 28.0337 67.6978 27.7496C67.1651 27.4656 66.5318 27.3235 65.7979 27.3235H61.7408V33.1474ZM61.7408 25.1839H65.4162C66.0317 25.1839 66.5851 25.0656 67.0763 24.8288C67.5735 24.5921 67.9671 24.2607 68.2571 23.8345C68.553 23.4025 68.701 22.8935 68.701 22.3075C68.701 21.5559 68.4376 20.9255 67.9109 20.4165C67.3841 19.9076 66.5762 19.6531 65.4872 19.6531H61.7408V25.1839ZM81.019 35.7752C79.6755 35.7752 78.5184 35.4882 77.5478 34.9141C76.583 34.334 75.8373 33.5202 75.3105 32.4727C74.7897 31.4192 74.5293 30.1851 74.5293 28.7706C74.5293 27.3738 74.7897 26.1428 75.3105 25.0774C75.8373 24.0121 76.5712 23.1805 77.5123 22.5827C78.4592 21.985 79.566 21.6861 80.8326 21.6861C81.602 21.6861 82.3477 21.8133 83.0698 22.0678C83.7918 22.3223 84.4399 22.7218 85.014 23.2663C85.5881 23.8108 86.0409 24.5181 86.3723 25.3881C86.7038 26.2522 86.8695 27.3028 86.8695 28.5398V29.4808H76.0297V27.4922H84.2683C84.2683 26.7938 84.1262 26.1753 83.8422 25.6367C83.5581 25.0922 83.1586 24.6631 82.6436 24.3494C82.1346 24.0357 81.5369 23.8789 80.8503 23.8789C80.1046 23.8789 79.4535 24.0624 78.8972 24.4293C78.3468 24.7904 77.9206 25.2638 77.6188 25.8498C77.3229 26.4298 77.1749 27.0601 77.1749 27.7408V29.2944C77.1749 30.2058 77.3347 30.9812 77.6543 31.6204C77.9798 32.2596 78.4326 32.7479 79.0126 33.0852C79.5926 33.4167 80.2703 33.5824 81.0456 33.5824C81.5487 33.5824 82.0074 33.5114 82.4217 33.3693C82.836 33.2214 83.1941 33.0024 83.4959 32.7124C83.7978 32.4223 84.0286 32.0643 84.1884 31.6381L86.7008 32.0909C86.4996 32.8307 86.1386 33.4788 85.6177 34.0352C85.1028 34.5856 84.4547 35.0147 83.6735 35.3224C82.8981 35.6243 82.0133 35.7752 81.019 35.7752ZM96.1801 21.8636V23.9943H88.7316V21.8636H96.1801ZM90.7291 18.5966H93.3836V31.4961C93.3836 32.011 93.4606 32.3987 93.6144 32.6591C93.7683 32.9136 93.9666 33.0882 94.2093 33.1829C94.4578 33.2717 94.7271 33.3161 95.0171 33.3161C95.2302 33.3161 95.4166 33.3013 95.5764 33.2717C95.7362 33.2421 95.8605 33.2184 95.9493 33.2006L96.4287 35.3935C96.2748 35.4527 96.0558 35.5118 95.7718 35.571C95.4877 35.6361 95.1325 35.6716 94.7064 35.6776C94.008 35.6894 93.357 35.5651 92.7533 35.3047C92.1496 35.0443 91.6613 34.6418 91.2884 34.0973C90.9156 33.5528 90.7291 32.8692 90.7291 32.0465V18.5966ZM103.085 35.8018C102.221 35.8018 101.44 35.642 100.741 35.3224C100.043 34.9969 99.4893 34.5264 99.081 33.9109C98.6785 33.2953 98.4773 32.5407 98.4773 31.647C98.4773 30.8776 98.6252 30.2443 98.9212 29.7472C99.2171 29.25 99.6166 28.8564 100.12 28.5664C100.623 28.2764 101.185 28.0574 101.806 27.9094C102.428 27.7615 103.061 27.649 103.706 27.5721C104.523 27.4774 105.186 27.4004 105.695 27.3413C106.204 27.2762 106.574 27.1726 106.805 27.0305C107.036 26.8885 107.151 26.6577 107.151 26.3381V26.2759C107.151 25.5006 106.932 24.8999 106.494 24.4737C106.062 24.0476 105.417 23.8345 104.559 23.8345C103.665 23.8345 102.961 24.0328 102.446 24.4293C101.937 24.82 101.585 25.255 101.389 25.7344L98.8945 25.1662C99.1905 24.3376 99.6225 23.6688 100.191 23.1598C100.765 22.6449 101.425 22.272 102.17 22.0412C102.916 21.8045 103.7 21.6861 104.523 21.6861C105.068 21.6861 105.645 21.7512 106.254 21.8814C106.87 22.0057 107.444 22.2365 107.977 22.5739C108.515 22.9112 108.956 23.3936 109.299 24.021C109.643 24.6424 109.814 25.4503 109.814 26.4446V35.5H107.222V33.6357H107.115C106.944 33.9789 106.686 34.3163 106.343 34.6477C106 34.9792 105.559 35.2544 105.02 35.4734C104.482 35.6924 103.837 35.8018 103.085 35.8018ZM103.662 33.6712C104.396 33.6712 105.023 33.5262 105.544 33.2362C106.071 32.9461 106.47 32.5674 106.743 32.0998C107.021 31.6263 107.16 31.1203 107.16 30.5817V28.8239C107.065 28.9186 106.882 29.0073 106.609 29.0902C106.343 29.1671 106.038 29.2352 105.695 29.2944C105.352 29.3477 105.017 29.398 104.692 29.4453C104.366 29.4867 104.094 29.5223 103.875 29.5518C103.36 29.617 102.89 29.7264 102.463 29.8803C102.043 30.0342 101.706 30.2562 101.451 30.5462C101.203 30.8303 101.078 31.209 101.078 31.6825C101.078 32.3395 101.321 32.8366 101.806 33.174C102.292 33.5054 102.91 33.6712 103.662 33.6712ZM119.094 35.7752C117.774 35.7752 116.638 35.4763 115.685 34.8786C114.738 34.2749 114.01 33.4433 113.501 32.3839C112.992 31.3245 112.737 30.1112 112.737 28.744C112.737 27.359 112.998 26.1368 113.519 25.0774C114.039 24.0121 114.773 23.1805 115.72 22.5827C116.667 21.985 117.783 21.6861 119.067 21.6861C120.103 21.6861 121.026 21.8784 121.837 22.2631C122.648 22.6419 123.302 23.1746 123.799 23.8612C124.302 24.5477 124.601 25.3497 124.696 26.267H122.112C121.97 25.6278 121.645 25.0774 121.136 24.6158C120.633 24.1541 119.958 23.9233 119.112 23.9233C118.372 23.9233 117.724 24.1186 117.167 24.5092C116.617 24.8939 116.188 25.4444 115.88 26.1605C115.572 26.8707 115.418 27.7112 115.418 28.6818C115.418 29.6761 115.569 30.5343 115.871 31.2564C116.173 31.9785 116.599 32.5378 117.15 32.9343C117.706 33.3308 118.36 33.5291 119.112 33.5291C119.615 33.5291 120.07 33.4374 120.479 33.2539C120.893 33.0645 121.239 32.7952 121.517 32.446C121.802 32.0968 122 31.6766 122.112 31.1854H124.696C124.601 32.0672 124.314 32.8544 123.835 33.5469C123.355 34.2393 122.713 34.7839 121.908 35.1804C121.109 35.5769 120.171 35.7752 119.094 35.7752ZM129.212 40.6136C128.816 40.6136 128.455 40.5811 128.129 40.516C127.804 40.4568 127.561 40.3917 127.401 40.3207L128.04 38.1456C128.526 38.2758 128.958 38.332 129.337 38.3143C129.715 38.2965 130.05 38.1545 130.34 37.8881C130.636 37.6218 130.896 37.1868 131.121 36.5831L131.45 35.6776L126.46 21.8636H129.301L132.755 32.446H132.897L136.35 21.8636H139.2L133.58 37.32C133.32 38.0302 132.988 38.6309 132.586 39.1222C132.183 39.6193 131.704 39.9922 131.148 40.2408C130.591 40.4893 129.946 40.6136 129.212 40.6136ZM146.975 35.7752C145.655 35.7752 144.518 35.4763 143.566 34.8786C142.619 34.2749 141.891 33.4433 141.382 32.3839C140.873 31.3245 140.618 30.1112 140.618 28.744C140.618 27.359 140.879 26.1368 141.399 25.0774C141.92 24.0121 142.654 23.1805 143.601 22.5827C144.548 21.985 145.664 21.6861 146.948 21.6861C147.984 21.6861 148.907 21.8784 149.718 22.2631C150.529 22.6419 151.183 23.1746 151.68 23.8612C152.183 24.5477 152.482 25.3497 152.577 26.267H149.993C149.851 25.6278 149.526 25.0774 149.017 24.6158C148.514 24.1541 147.839 23.9233 146.992 23.9233C146.253 23.9233 145.605 24.1186 145.048 24.5092C144.498 24.8939 144.069 25.4444 143.761 26.1605C143.453 26.8707 143.299 27.7112 143.299 28.6818C143.299 29.6761 143.45 30.5343 143.752 31.2564C144.054 31.9785 144.48 32.5378 145.03 32.9343C145.587 33.3308 146.241 33.5291 146.992 33.5291C147.496 33.5291 147.951 33.4374 148.36 33.2539C148.774 33.0645 149.12 32.7952 149.398 32.446C149.682 32.0968 149.881 31.6766 149.993 31.1854H152.577C152.482 32.0672 152.195 32.8544 151.715 33.5469C151.236 34.2393 150.594 34.7839 149.789 35.1804C148.99 35.5769 148.052 35.7752 146.975 35.7752ZM158.07 17.3182V35.5H155.415V17.3182H158.07ZM167.518 35.7752C166.175 35.7752 165.017 35.4882 164.047 34.9141C163.082 34.334 162.336 33.5202 161.81 32.4727C161.289 31.4192 161.028 30.1851 161.028 28.7706C161.028 27.3738 161.289 26.1428 161.81 25.0774C162.336 24.0121 163.07 23.1805 164.011 22.5827C164.958 21.985 166.065 21.6861 167.332 21.6861C168.101 21.6861 168.847 21.8133 169.569 22.0678C170.291 22.3223 170.939 22.7218 171.513 23.2663C172.087 23.8108 172.54 24.5181 172.871 25.3881C173.203 26.2522 173.369 27.3028 173.369 28.5398V29.4808H162.529V27.4922H170.767C170.767 26.7938 170.625 26.1753 170.341 25.6367C170.057 25.0922 169.658 24.6631 169.143 24.3494C168.634 24.0357 168.036 23.8789 167.349 23.8789C166.604 23.8789 165.953 24.0624 165.396 24.4293C164.846 24.7904 164.42 25.2638 164.118 25.8498C163.822 26.4298 163.674 27.0601 163.674 27.7408V29.2944C163.674 30.2058 163.834 30.9812 164.153 31.6204C164.479 32.2596 164.932 32.7479 165.512 33.0852C166.092 33.4167 166.769 33.5824 167.545 33.5824C168.048 33.5824 168.506 33.5114 168.921 33.3693C169.335 33.2214 169.693 33.0024 169.995 32.7124C170.297 32.4223 170.528 32.0643 170.687 31.6381L173.2 32.0909C172.999 32.8307 172.638 33.4788 172.117 34.0352C171.602 34.5856 170.954 35.0147 170.172 35.3224C169.397 35.6243 168.512 35.7752 167.518 35.7752Z" fill="white"/>
<defs>
<linearGradient id="paint0_linear_71_177" x1="8" y1="41.6" x2="37.8" y2="6.2" gradientUnits="userSpaceOnUse">
<stop stop-color="#5BBCFF"/>
<stop offset="1" stop-color="#D75823"/>
</linearGradient>
<linearGradient id="paint1_linear_71_177" x1="25" y1="50.5" x2="25" y2="0.5" gradientUnits="userSpaceOnUse">
<stop stop-color="#091E42"/>
<stop offset="1" stop-color="#5BBCFF"/>
</linearGradient>
<clipPath id="clip0_71_177">
<rect y="0.5" width="50" height="50" rx="25" fill="white"/>
</clipPath>
</defs>
</svg>
