<svg width="900" height="900" viewBox="0 0 900 900" fill="none" xmlns="http://www.w3.org/2000/svg">
<g clip-path="url(#clip0_69_164)">
<path d="M891 450C891 206.442 693.558 9 450 9C206.442 9 9 206.442 9 450C9 693.558 206.442 891 450 891C693.558 891 891 693.558 891 450Z" fill="url(#paint0_linear_69_164)"/>
<path d="M891 450C891 206.442 693.558 9 450 9C206.442 9 9 206.442 9 450C9 693.558 206.442 891 450 891C693.558 891 891 693.558 891 450Z" stroke="url(#paint1_linear_69_164)" stroke-width="5"/>
<path d="M429.779 374.67C429.001 374.933 428.919 375.199 428.227 380.934C427.939 383.008 426.917 387.094 425.815 390.492C423.529 397.343 423.324 398.138 422.914 403.873C422.547 409.291 421.485 412.106 414.173 427.399C409.309 437.54 402.531 454.162 402.977 454.745C403.265 455.116 406.861 452.992 409.23 451.03C410.371 450.126 412.333 448.106 413.64 446.569L415.969 443.754L414.213 449.276C409.515 463.828 409.025 464.994 406.167 468.976C404.694 471.1 402.815 474.127 401.998 475.722C400.201 479.437 399.957 479.65 395.871 481.828C393.829 482.944 392.029 484.322 391.335 485.33C390.355 486.713 390.193 487.296 390.316 489.686C390.438 492.127 390.6 492.552 391.824 493.618C392.602 494.305 393.664 494.838 394.153 494.838C394.686 494.838 395.136 495.05 395.136 495.263C395.136 495.529 389.988 498.874 383.656 502.801C377.363 506.678 371.725 510.343 371.196 510.872C370.501 511.618 370.213 512.413 370.213 513.634C370.213 516.769 372.503 518.468 378.835 520.06C384.88 521.546 389.945 520.805 396.771 517.457L400.284 515.758L398.934 518.681C398.2 520.272 397.588 521.867 397.588 522.238C397.588 525.953 375.973 540.187 359.798 547.196C356.202 548.734 352.24 550.17 351.014 550.382L348.767 550.753L350.115 551.495C354.446 553.831 367.355 553.514 379.53 550.858C389.211 548.683 400.363 544.54 403.632 541.778C404.122 541.354 404.532 541.141 404.532 541.354C404.532 541.512 403.265 544.061 401.713 547.034C395.176 559.462 387.781 567.479 378.385 572.26C369.807 576.612 364.252 578.686 359.185 579.535C352.362 580.597 351.177 581.072 350.401 582.984C348.277 588.294 351.3 595.303 357.305 598.968C361.595 601.571 370.134 603.695 376.344 603.695C377.446 603.695 378.385 603.907 378.385 604.12C378.385 604.703 376.017 607.518 374.627 608.634C374.015 609.113 371.524 610.279 369.112 611.183C366.7 612.086 364.209 613.199 363.597 613.573C360.533 615.643 360.288 623.344 363.107 626.58C364.536 628.175 366.538 629.237 370.296 630.245C374.094 631.307 375.934 632.689 375.934 634.439C375.934 635.713 369.645 647.982 368.133 649.627C366.415 651.485 365.393 651.272 360.123 648.086C357.918 646.762 354.568 645.167 352.689 644.584C350.81 643.946 348.359 642.884 347.256 642.139C345.336 640.865 342.027 637.412 342.027 636.671C342.027 636.458 343.415 635.98 345.131 635.663C350.524 634.547 354.65 631.465 355.304 628.067C355.753 625.68 354.241 624.085 349.38 621.961C343.742 619.466 342.762 618.775 338.513 614.261C332.671 608.101 328.545 602.579 328.545 600.934C328.545 600.721 329.526 600.509 330.751 600.509C334.265 600.509 337.655 598.489 339.208 595.357C341.046 591.8 339.902 590.047 334.387 587.819C330.465 586.224 326.462 583.571 324.542 581.234L323.561 580.064L327.401 579.748C330.424 579.535 331.609 579.161 333.243 578.048C336.552 575.762 337.941 573.746 337.941 571.252C337.941 569.657 337.982 569.657 330.343 566.525C327.892 565.567 325.195 563.976 323.725 562.752C321.355 560.736 317.964 556.38 317.066 554.206C316.698 553.302 316.779 553.248 317.801 553.619C319.598 554.256 325.726 554.098 327.442 553.302C329.771 552.294 329.444 551.07 325.971 547.992C319.843 542.628 316.453 535.619 315.064 525.424C314.533 521.759 313.879 518.785 313.266 517.406C312.286 515.282 312.204 514.433 311.591 499.298C310.938 482.782 310.733 479.97 310.12 479.97C309.63 479.97 308.609 484.801 307.669 491.652C306.975 496.696 306.893 498.978 307.098 504.662C307.383 511.405 307.343 511.722 306.28 515.016C305.504 517.406 305.096 519.955 304.891 523.404C304.605 527.814 304.442 528.502 303.298 530.363C302.563 531.529 301.786 533.07 301.541 533.815C301.255 534.611 299.989 535.885 298.273 537.052C294.597 539.55 294.515 540.612 297.906 542.47C299.254 543.265 300.357 544.061 300.357 544.273C300.357 544.91 297.946 547.142 295.454 548.734C292.227 550.858 289.122 552.132 285.854 552.769C284.179 553.036 282.545 553.727 281.85 554.364C281.115 555.055 280.257 555.372 279.195 555.268C277.724 555.106 277.683 555.16 277.806 556.7C278.01 558.983 278.46 559.408 280.747 559.778C282.177 559.991 283.403 560.682 284.669 561.852C286.344 563.389 286.957 563.656 289.858 563.868L293.167 564.134L291.778 566.204C290.184 568.541 288.387 569.711 286.344 569.711C285.568 569.711 284.383 569.977 283.648 570.294C282.668 570.773 282.381 571.198 282.381 572.314C282.381 575.975 285.486 577.994 290.47 577.516L293.616 577.249L292.186 578.79C291.41 579.694 289.449 581.234 287.897 582.242C285.159 583.996 284.71 584.1 278.827 584.579C275.396 584.896 272.168 585.32 271.596 585.587C270.167 586.332 269.84 588.082 270.82 589.835C271.555 591.109 272.7 591.854 277.888 594.349C278.909 594.828 280.175 595.678 280.747 596.261C281.973 597.535 281.524 598.118 278.827 598.597C275.232 599.234 274.456 600.934 276.662 603.374C278.133 604.969 280.666 605.552 284.506 605.128L287.366 604.811L282.545 609.113C277.111 613.944 276.09 614.473 270.82 615.643C268.737 616.122 266.081 617.076 264.897 617.821C263.426 618.721 261.751 619.2 259.381 619.466C255.174 619.837 254.193 620.528 254.193 623.29C254.193 624.989 254.438 625.626 255.623 627.005C257.298 628.916 260.975 630.457 265.714 631.307C267.552 631.627 269.145 631.998 269.227 632.102C269.309 632.21 269.104 632.848 268.778 633.539C267.879 635.342 267.511 638.424 268.083 639.749C268.328 640.386 269.104 641.344 269.799 641.927L271.024 642.884L269.309 645.325C265.959 649.998 256.971 656.212 253.376 656.266C248.555 656.37 246.431 657.911 246.431 661.309C246.431 663.541 247.902 665.453 250.435 666.565C251.456 667.044 254.111 668.743 256.317 670.388C260.77 673.682 263.262 674.849 265.959 674.849C267.797 674.849 267.797 674.849 267.021 675.965C266.612 676.548 263.099 679.1 259.218 681.595L252.15 686.11L250.639 684.94C244.103 679.95 235.809 669.964 231.765 662.159C228.456 655.841 222.369 645.221 219.918 641.452C218.57 639.378 218.283 638.687 218.855 638.899C223.635 640.865 233.113 642.46 239.568 642.46C247.943 642.46 258.278 639.803 258.605 637.574C258.769 636.512 257.053 635.767 249.495 633.697C242.55 631.786 242.958 632.052 244.634 630.14C246.186 628.333 247.248 626.105 247.248 624.51C247.248 623.556 246.88 623.448 243.081 623.236C235.278 622.811 231.683 620.208 222.737 608.526C212.115 594.666 203.985 580.172 200.676 569.232L199.818 566.417L204.23 571.835C213.626 583.463 225.555 593.5 235.36 598.064C243.816 602.05 257.666 602.312 263.181 598.651L264.202 597.96L263.181 597.377C262.609 597.11 260.525 595.994 258.483 594.932C253.417 592.279 247.902 588.402 242.387 583.675C238.465 580.277 237.852 579.535 238.383 579.056C238.751 578.736 240.181 577.624 241.57 576.612C244.879 574.171 248.31 569.711 249.536 566.312C250.271 564.293 250.516 562.702 250.516 559.991V556.434H248.555C243.735 556.434 234.543 553.46 228.619 550.062C225.351 548.15 221.184 544.648 218.243 541.354C217.017 539.975 214.852 537.851 213.463 536.681L210.93 534.503L212.442 533.07C217.385 528.451 220.694 521.813 220.694 516.607C220.694 512.201 220.326 511.776 215.751 511.247C213.626 510.98 210.889 510.343 209.664 509.918C207.131 508.961 198.552 502.538 197.04 500.465L196.059 499.086H198.47C203.127 499.086 207.703 496.591 208.683 493.456C209.909 489.632 208.193 486.342 202.759 482.144C201.125 480.87 199.083 478.958 198.184 477.792C196.632 475.772 196.632 475.772 197.285 474.127C197.612 473.173 197.816 471.737 197.694 470.783C197.571 469.454 197.775 468.817 198.674 467.651C200.226 465.577 201.207 461.437 201.003 457.88C200.758 454.428 197.653 445.878 194.793 440.834C193.813 439.027 192.669 436.849 192.342 435.949C191.321 433.451 190.218 426.55 188.87 414.655C187.399 401.645 187.194 400.37 186.704 400C186.01 399.413 185.765 400.37 185.52 405.256C185.315 408.92 184.988 410.882 184.172 413.114C183.518 414.918 182.864 418.212 182.496 421.61C180.821 436.478 180.045 439.294 176.369 444.337C175.184 445.982 173.672 448.481 173.019 449.968C172.079 452.092 171.262 452.992 169.179 454.478C166.319 456.552 166.033 457.243 166.727 460.746C167.463 464.252 168.811 466.322 170.935 467.276L172.855 468.076L171.834 469.721C170.322 472.216 166.196 476.093 162.192 478.696C160.232 479.97 157.944 481.774 157.127 482.731C153.205 487.192 154.226 492.023 159.537 494.042C160.722 494.467 162.479 495.58 163.459 496.429C165.87 498.553 167.177 498.503 169.179 496.166C170.813 494.201 172.243 493.83 173.795 494.892C174.571 495.421 174.448 495.58 172.447 497.333C169.464 499.882 168.484 501.156 167.708 503.226C167.34 504.238 166.441 505.404 165.583 505.937C163.255 507.528 158.475 509.173 154.88 509.706C151.775 510.185 151.448 510.343 149.651 512.467C148.589 513.742 146.669 515.92 145.402 517.298C144.013 518.839 143.074 520.272 143.074 520.909C143.074 522.025 144.544 523.087 147.159 523.778C147.935 523.991 150.264 525.211 152.265 526.486C154.349 527.76 157.903 529.405 160.436 530.204C166.523 532.166 166.523 532.166 163.418 532.541C160.191 532.966 159.129 533.761 157.005 537.53C156.065 539.125 155.166 540.558 154.921 540.77C154.676 540.983 153.001 541.141 151.121 541.195C147.894 541.3 147.69 541.408 145.198 543.586C143.768 544.86 142.011 546.239 141.235 546.664C134.78 550.17 115.212 547.142 102.303 540.716C98.1762 538.646 93.1106 534.557 91.4356 531.954C90.8639 531.054 90.3736 530.521 90.3736 530.734C90.3736 531.796 93.5599 538.326 97.0735 544.435C99.2386 548.15 100.995 551.444 100.995 551.657C100.995 551.92 101.445 552.823 102.057 553.727C102.834 554.947 103.937 555.692 106.633 556.754C110.595 558.292 111.045 558.666 116.315 564.401C120.4 568.861 122.32 570.506 123.954 571.039C125.711 571.622 125.344 572.206 122.484 573.376C116.56 575.762 107.981 576.137 103.896 574.276C101.73 573.268 101.445 573.426 102.711 575.021C104.386 577.091 106.715 578.79 110.922 580.968C113.21 582.134 115.947 583.675 117.01 584.366C121.503 587.34 130.082 588.348 135.066 586.544C136.415 586.066 139.479 585.482 141.889 585.32C145.484 585.004 146.587 585.108 147.976 585.853C148.916 586.332 149.896 586.544 150.141 586.332C150.427 586.17 150.264 586.544 149.814 587.232C149.365 587.869 146.995 590.206 144.504 592.33C142.052 594.454 138.907 597.427 137.558 598.914C136.21 600.401 133.596 602.845 131.716 604.278C126.651 608.314 114.109 616.014 108.267 618.775C103.446 621.058 96.7466 623.077 96.0112 622.494C95.8477 622.332 95.6843 622.44 95.6843 622.706C95.6843 623.819 99.8513 628.016 102.711 629.82C107.001 632.581 110.8 633.964 115.702 634.547C119.665 635.026 122.484 634.972 131.553 634.176L134.944 633.856L134.29 635.926C133.922 637.042 133.187 638.582 132.615 639.324C131.512 640.811 127.631 643.522 126.569 643.522C125.262 643.522 125.629 644.476 127.263 645.275C131.553 647.345 139.887 648.619 145.239 648.036C146.954 647.874 148.384 647.824 148.384 647.928C148.384 648.036 147.159 649.098 145.647 650.21C143.972 651.485 141.153 654.566 138.335 658.177C134.331 663.329 133.187 664.441 129.919 666.565C127.836 667.894 123.056 670.284 119.297 671.875C111.413 675.274 110.882 675.594 108.145 678.514C105.612 681.224 99.8923 684.886 95.2757 686.797C89.4746 689.134 73.0518 690.516 70.1106 688.921C67.537 687.542 65.8619 688.871 65.8619 692.215C65.8619 696.888 72.6436 707.083 77.9132 710.482L80.7731 712.285H88.9436C93.4375 712.285 99.6878 712.127 102.834 711.86L108.553 711.49L106.715 712.922C100.832 717.491 92.6203 724.234 89.8832 726.782C87.0234 729.439 86.6969 729.864 86.6969 731.455C86.6969 735.386 90.6187 738.572 95.4391 738.572C103.855 738.572 121.177 732.146 128.162 726.412L130.818 724.288V725.882C130.818 726.732 131.104 728.165 131.43 729.014C133.637 734.591 140.868 732.625 149.447 724.183C152.347 721.314 152.388 721.422 149.651 726.095C141.358 740.43 127.672 757.105 119.093 763.319C114.64 766.555 107.736 770.116 98.0948 774.151C93.07 776.275 88.2492 778.45 87.3913 779.036C85.6756 780.149 85.0625 781.69 85.0625 784.93C85.0625 788.17 86.2883 790.452 88.903 791.993C91.4356 793.48 94.4995 794.009 105.693 794.912C110.187 795.233 114.15 795.708 114.477 795.974C114.926 796.295 113.374 798.631 107.736 805.903C93.4782 824.278 86.2066 831.445 77.0964 836.014C69.3751 839.891 60.0608 842.015 55.1994 841.003C51.6858 840.262 50.5828 841.057 50.4197 844.297C50.338 846.101 50.501 847.058 51.1958 848.12C52.0944 849.661 57.0376 853.11 59.9381 854.334C60.837 854.705 62.3076 855.5 63.1655 856.033C64.7588 857.095 65.6578 857.2 81.3041 858.42C84.9401 858.686 90.3736 857.57 96.9918 855.184L100.505 853.909L100.301 855.659C100.178 856.721 100.342 858.049 100.709 859.007L101.322 860.598L99.1162 862.618C96.4198 865.008 93.6827 868.831 90.6594 874.354C89.434 876.636 87.9634 879.026 87.432 879.714C86.901 880.351 82.8568 882.637 78.4853 884.812C66.4339 890.759 60.4694 894.69 57.732 898.618L56.7517 900H462.949H869.148L872.662 897.505C884.225 889.38 894.6 879.61 897.869 873.821C899.748 870.53 900.281 868.457 899.871 866.016C899.543 864.05 898.603 863.946 894.928 865.433C885.737 869.202 873.846 865.22 859.057 853.43C855.465 850.511 848.643 844.456 846.558 842.227L845.579 841.165L848.398 841.907C852.685 843.023 862.449 843.448 866.74 842.702C873.234 841.59 879.322 838.508 884.754 833.623C886.839 831.766 887.001 831.445 885.982 831.712C880.672 833.04 878.177 833.252 875.441 832.669C872.907 832.082 869.436 830.225 869.436 829.429C869.436 829.271 871.027 828.313 872.989 827.305C878.422 824.544 885.654 819.709 888.923 816.685C892.516 813.391 894.193 810.151 893.826 807.232C893.376 803.675 892.764 803.516 889.618 805.957C885.287 809.356 882.303 810.364 876.993 810.364C867.147 810.364 853.542 804.629 844.189 796.453C837.735 790.877 832.137 781.956 830.707 775.051C830.297 773.089 830.297 773.035 831.769 772.078C833.526 770.911 834.916 769.054 835.283 767.459C835.567 766.292 835.567 766.292 837.529 767.246C841.738 769.37 845.863 770.062 852.646 769.741C859.551 769.478 863.309 768.467 867.597 765.868C868.824 765.068 869.843 764.431 869.843 764.381C869.843 764.381 868.086 764.273 865.962 764.219C860.202 764.06 853.42 761.724 850.194 758.696L849.01 757.634L852.073 754.398C855.177 751.208 858.323 746.644 859.468 743.774C860.08 742.237 860.08 742.237 859.18 742.82C857.916 743.724 853.708 743.562 850.601 742.554C840.921 739.314 829.278 727.528 821.639 713.243C818.698 707.774 818.655 707.987 822.085 707.562C828.501 706.712 833.933 704.056 836.262 700.603C837.979 698.108 838.102 694.818 836.507 692.428L835.445 690.782H837.285C841.615 690.782 848.477 687.384 851.623 683.611C853.463 681.437 853.625 679.896 851.991 680.375C843.901 682.603 834.383 681.595 830.913 678.038C829.278 676.336 819.76 660.78 820.656 661.255C822.413 662.159 825.642 662.638 827.439 662.371C828.745 662.105 830.095 661.363 831.647 659.876C833.487 658.177 834.138 657.857 835.121 658.123C837.94 658.919 838.797 656.69 837.202 652.655C836.14 649.948 834.588 648.248 831.197 645.962C825.804 642.352 822.658 636.988 820.699 628.067C819.472 622.598 818.287 619.358 817.02 618.296C816.124 617.555 816.081 617.13 815.591 604.386C814.857 585.162 813.507 574.013 811.221 568.17C810.036 565.038 808.852 563.868 807.012 563.868C803.459 563.868 802.602 566.471 801.414 580.597C800.597 590.368 799.823 595.516 798.595 599.126C797.577 602.154 792.796 609.8 789.199 614.21C786.424 617.659 784.869 618.509 780.703 619.096C776.373 619.625 775.473 620.474 775.473 623.873C775.473 625.997 775.678 626.792 776.7 628.279C777.352 629.237 778.619 630.511 779.559 631.04C782.215 632.581 781.031 633.164 775.35 633.164C772.614 633.164 769.835 632.952 769.144 632.74L767.916 632.315L768.939 633.431C772.614 637.362 775.721 638.795 781.398 639.22L785.891 639.536L786.136 642.989C786.381 646.974 786.831 648.248 788.587 650.052L789.855 651.326L788.015 653.396C786.463 655.204 777.802 661.576 776.945 661.576C776.783 661.576 777.352 660.78 778.169 659.822C781.765 655.733 782.867 652.018 781.11 649.894C779.886 648.407 777.64 648.511 773.881 650.264C769.835 652.122 766.321 652.122 759.298 650.264C749.902 647.77 745.488 645.487 738.299 639.378C734.991 636.563 726.124 625.943 724.284 622.598L723.427 621.058L726.779 621.378C728.615 621.536 730.127 621.482 730.127 621.27C730.127 621.058 729.231 619.733 728.086 618.296C726.981 616.864 726.041 615.535 726.041 615.377C726.041 615.218 730.044 615.06 734.947 615.06C741.647 615.006 744.588 614.74 747.083 614.048C754.189 612.086 757.375 608.155 755.619 603.428C754.801 601.092 753.739 600.401 749.614 599.234C747.245 598.543 745.773 597.694 743.692 595.89C739.483 592.225 738.094 591.48 734.62 590.951C730.944 590.418 730.17 589.993 727.841 587.232C726.941 586.17 724.45 583.783 722.326 581.922C715.093 575.604 710.068 570.294 707.865 566.575C707.087 565.301 706.432 564.08 706.432 563.868C706.432 563.71 707.616 563.656 709.128 563.764C713.949 564.188 720.119 561.69 721.998 558.666C722.977 557.017 723.021 553.885 722.121 553.406C721.753 553.248 720.281 553.356 718.812 553.727C716.483 554.256 715.993 554.256 714.687 553.406C713.337 552.557 711.375 549.32 711.825 548.734C711.947 548.575 713.459 548.734 715.259 549.054C723.51 550.595 729.965 545.922 730.249 538.276L730.332 535.99H725.224C721.264 535.939 719.752 535.727 718.485 535.036C716.116 533.653 714.726 531.691 713.949 528.61C713.581 527.123 713.009 525.211 712.685 524.362C711.868 522.292 709.089 518.468 707.415 517.086L706.065 516.024L707.616 514.058C708.477 512.996 709.251 511.776 709.333 511.351C709.495 510.822 709.906 510.98 711.09 512.042C713.052 513.796 715.093 514.271 717.095 513.475C719.097 512.68 719.914 511.139 719.914 508.111C719.914 504.925 718.812 502.218 716.4 499.457C713.704 496.379 711.501 491.702 710.233 486.342C709.661 483.844 708.271 479.225 707.17 475.985C705.413 470.887 705.085 469.454 704.596 463.774C703.289 449.543 699.531 435.416 696.834 434.513C694.095 433.613 692.953 436.212 692.953 443.221C692.953 447.311 692.748 448.693 691.521 453.204C690.703 456.073 689.886 460.217 689.685 462.391C689.152 467.914 688.295 471.1 685.599 478.004C681.145 489.578 676.487 499.723 675.18 500.785C674.529 501.314 672.199 502.484 670.075 503.388C663.538 506.149 661.536 508.165 660.679 513.05C660.147 516.236 660.557 518.573 661.821 519.689C662.76 520.484 663.088 520.484 666.195 519.635C670.277 518.519 671.26 518.519 671.544 519.476C671.872 520.592 670.727 523.087 669.136 524.945C667.051 527.335 663.66 529.247 658.307 531C655.654 531.904 653.163 532.966 652.713 533.39C649.728 536.256 648.954 536.839 647.604 537.318C644.051 538.538 640.455 543.211 639.353 548.046C639.108 549.158 638.698 550.062 638.413 550.062C637.557 550.062 633.51 548.363 631.959 547.301C631.059 546.718 630.285 546.397 630.162 546.505C630.079 546.664 630.285 547.513 630.609 548.417C630.979 549.266 631.264 550.116 631.264 550.328C631.264 550.807 628.528 550.645 627.383 550.062C626.443 549.583 626.404 549.637 626.728 550.487C628.078 553.727 631.509 555.743 636.862 556.434C639.069 556.7 641.927 557.284 643.234 557.762C644.501 558.187 646.625 558.929 647.892 559.354C649.199 559.778 651.078 560.153 652.101 560.203C653.692 560.203 653.814 560.311 653.163 560.84C652.752 561.215 650.913 562.914 649.116 564.613C645.03 568.49 643.234 569.498 639.803 569.923C636.289 570.348 631.264 572.101 628.485 573.8C627.261 574.542 625.137 576.454 623.787 578.048C622.401 579.694 620.439 581.497 619.416 582.134C617.947 583.038 617.537 583.571 617.454 584.791C617.17 587.869 617.62 588.719 619.704 588.985C620.806 589.093 623.585 590.155 625.954 591.217C629.629 592.967 630.857 593.287 634.572 593.5C637.719 593.658 639.475 593.5 640.987 592.916L643.111 592.117L643.356 593.554C643.929 597.377 644.458 598.968 645.397 599.926C646.38 600.934 646.38 601.038 645.808 602.525C644.785 605.077 642.906 606.776 640.743 607.147C637.636 607.676 637.189 607.838 636.045 609.059C635.184 609.908 634.939 610.6 634.939 612.245C634.939 615.06 635.433 616.122 637.063 617.022C638.903 618.034 645.93 617.872 650.833 616.759C652.914 616.28 654.714 615.96 654.793 616.014C655.121 616.493 648.666 625.518 645.603 628.916C639.148 636.034 633.226 640.811 626.404 644.317C622.89 646.124 622.44 646.229 620.968 645.7C620.111 645.325 619.416 644.954 619.416 644.796C619.416 644.688 619.866 643.68 620.395 642.564C620.968 641.502 621.54 639.961 621.663 639.166C621.907 637.945 622.235 637.679 623.83 637.412C629.179 636.404 634.533 633.643 636.124 630.99C637.189 629.237 637.269 626.209 636.289 625.572C635.879 625.306 634.288 624.935 632.776 624.722C626.649 623.927 622.195 620.633 615.78 612.191C610.02 604.598 605.283 596.79 602.953 591.055C601.891 588.402 600.462 585.641 599.807 584.896C598.295 583.304 598.295 582.984 599.645 582.984C601.726 582.984 608.998 580.756 610.47 579.694C612.799 577.994 613.451 575.338 612.267 572.364C611.493 570.452 610.51 569.711 608.591 569.711C607.734 569.711 605.977 568.966 604.3 567.853C602.748 566.842 601.074 565.992 600.624 565.992C599.235 565.992 597.766 563.656 597.766 561.478C597.766 560.153 597.438 559.195 596.783 558.292C595.887 557.125 595.804 556.7 596.009 553.993L596.254 551.02L594.497 549.054L592.701 547.034L594.007 544.698C595.192 542.524 595.271 542.045 595.354 537.052C595.476 531.104 594.825 521.442 594.252 520.272C594.047 519.847 593.802 515.333 593.68 510.235C593.392 499.615 593.147 498.395 591.106 498.661C589.349 498.874 588.532 501.156 588.003 507.049C587.509 512.255 586.285 517.352 583.589 524.786C582.117 528.876 581.627 530.946 581.425 533.815C581.26 535.939 580.731 538.751 580.198 540.187L579.298 542.786L580.198 545.602C581.22 548.842 581.055 549.904 579.258 552.24C577.012 555.214 574.355 556.434 570.312 556.434C567.655 556.434 566.637 556.646 566.143 557.284C565.287 558.346 565.326 561.478 566.187 563.389C566.921 564.984 570.352 567.641 573.703 569.074L575.745 569.977L572.476 572.789C566.471 577.94 561.283 579.798 557.932 577.994C556.791 577.357 555.729 577.199 554.461 577.411C553.234 577.624 551.398 577.357 548.986 576.612C546.984 576.029 545.271 575.604 545.188 575.712C544.777 576.295 551.887 584.154 554.094 585.587L556.625 587.232L555.156 588.031C553.522 588.931 547.351 590.418 545.105 590.418C543.838 590.472 544.165 590.738 547.312 592.225C549.353 593.179 551.477 594.349 552.01 594.774C553.479 595.994 557.115 596.261 563.857 595.728C567.126 595.516 569.862 595.411 569.985 595.57C570.517 596.261 565.492 601.146 560.833 604.44C553.806 609.376 550.537 611.129 542.409 614.315C535.057 617.184 534.197 617.234 531.745 615.323C530.971 614.686 529.704 614.315 528.559 614.315C527.497 614.315 526.273 614.102 525.863 613.786C525.456 613.519 523.249 612.882 520.96 612.457C518.674 612.032 516.427 611.395 515.977 611.075C514.671 610.175 514.671 610.862 515.938 613.89C518.429 619.945 526.313 628.333 532.807 631.89C537.588 634.547 546.7 635.821 551.805 634.547C553.234 634.226 553.644 634.388 554.991 635.767C555.851 636.617 557.73 637.837 559.199 638.474L561.895 639.59L558.465 643.363C549.846 652.813 544.493 656.532 536.609 658.656C534.892 659.131 533.463 659.398 533.34 659.293C533.257 659.131 534.118 657.061 535.259 654.62C537.261 650.318 538.038 647.982 537.588 647.449C537.383 647.186 534.852 648.353 525.618 652.972C516.755 657.432 514.426 658.069 507.481 657.698C500.044 657.328 495.468 656.266 489.507 653.558C486.933 652.388 481.335 649.948 477.043 648.086C472.795 646.229 467.892 643.892 466.218 642.776C463.155 640.865 460.131 637.999 460.498 637.466C460.624 637.362 462.377 637.787 464.461 638.474C472.061 641.077 476.842 641.29 487.872 639.536C490.691 639.061 494.367 638.474 496.041 638.212C499.759 637.679 502.089 636.671 506.664 633.856C510.055 631.732 510.095 631.678 508.911 631.202C508.255 630.936 504.785 630.616 501.228 630.403L494.817 630.086L493.999 628.333C491.998 624.139 487.217 620.104 479.167 615.856C476.309 614.369 474.023 613.04 474.063 612.986C474.145 612.882 475.942 613.465 478.066 614.156C485.298 616.651 497.023 616.385 500.861 613.624C501.721 612.986 501.678 612.882 499.025 610.6C495.591 607.676 491.508 602.474 490.363 599.605C489.258 596.79 489.258 596.79 490.648 596.79C493.917 596.79 501.027 593.075 505.926 588.773C509.85 585.374 515.322 579.748 515.077 579.373C514.915 579.215 512.219 578.365 509.033 577.516C502.045 575.712 492.855 572.314 485.622 568.915C475.737 564.293 463.072 555.48 457.272 549.108L455.883 547.567L461.358 547.247C476.431 546.397 489.136 539.708 492.527 530.842C493.387 528.61 493.589 527.335 493.589 524.041C493.589 518.256 493.344 517.936 489.507 519.264C483.214 521.442 478.188 521.28 467.035 518.36C461.848 517.032 453.352 513.742 452.981 512.946C452.859 512.68 453.719 512.359 454.903 512.201C458.05 511.672 460.786 510.343 462.132 508.536C463.115 507.262 463.36 506.52 463.36 504.608C463.36 503.28 463.155 501.689 462.91 501.102C462.46 500.04 462.543 499.99 463.81 500.36C470.589 502.114 473.04 502.484 478.678 502.43C485.827 502.43 489.057 501.527 494.244 498.128C497.023 496.325 502.211 491.756 502.74 490.694C502.823 490.482 498.942 490.324 494.082 490.324C484.193 490.324 480.517 489.686 473.695 486.767L469.692 485.118L473.901 484.11C476.187 483.581 479.211 482.569 480.557 481.828C483.214 480.445 486.85 477.259 487.462 475.722C487.872 474.66 488.567 474.872 478.271 473.065C475.125 472.536 469.242 471.686 465.196 471.208C456.415 470.2 453.147 469.35 450.328 467.543C448.366 466.214 447.509 464.569 448.816 464.569C450.04 464.569 456.988 459.58 458.496 457.614C459.886 455.807 460.091 455.224 460.091 453.204C460.091 450.23 459.519 449.647 454.781 447.79C449.593 445.77 443.668 441.205 440.521 436.799L439.542 435.416L442.566 437.062C445.018 438.444 446.281 438.761 449.266 438.973C451.39 439.081 453.431 438.923 454.086 438.602L455.271 438.019L451.023 432.018C446.08 424.955 440.154 415.292 438.153 411.044C436.029 406.372 435.539 403.556 435.539 396.439C435.579 390.6 435.496 390.017 434.517 387.785C433.699 385.927 433.372 384.386 433.127 380.563C432.76 374.774 432.231 373.82 429.779 374.67ZM655.326 653.929C654.631 654.991 649.851 659.185 646.665 661.468L644.335 663.167L638.536 660.143L632.693 657.061L634.533 656.69C635.555 656.532 637.391 656.32 638.619 656.32C641.927 656.266 651.161 654.779 653.53 653.929C654.671 653.504 655.654 653.134 655.737 653.134C655.816 653.08 655.611 653.45 655.326 653.929ZM765.342 669.114C765.058 669.488 762.196 672.566 759.01 675.911C753.577 681.649 753.21 682.178 753.21 683.878C753.21 685.577 753.372 685.789 754.845 686.426C756.925 687.33 762.073 686.959 769.957 685.26C773.104 684.569 775.721 684.09 775.8 684.144C775.883 684.198 774.983 685.577 773.881 687.172C771.592 690.408 771.145 690.728 766.077 692.428C759.42 694.656 754.229 697.896 752.598 700.87C752.105 701.827 751.781 703.206 751.781 704.639C751.781 706.604 752.026 707.188 753.538 709.049C755.089 711.011 759.91 714.517 763.708 716.483L765.259 717.278L764.035 720.572C763.38 722.376 762.523 725.508 762.117 727.528C761.667 729.81 761.217 731.084 760.932 730.926C760.644 730.768 756.886 727.049 752.476 722.534L744.549 714.409L746.183 714.146L747.817 713.88L740.218 704.639C736.009 699.541 732.661 695.293 732.741 695.189C732.823 695.081 734.703 695.826 736.909 696.834C739.116 697.896 740.952 698.692 740.995 698.587C741.035 698.533 738.461 694.393 735.235 689.454C731.967 684.461 729.353 680.321 729.31 680.162C729.31 679.63 737.071 680.213 740.83 680.958C742.792 681.329 745.449 682.286 746.712 683.028C747.979 683.773 749.164 684.41 749.369 684.41C750.676 684.41 749.657 676.973 747.695 672.25C747 670.655 746.511 669.276 746.59 669.222C746.673 669.114 748.512 669.222 750.759 669.488C754.434 669.913 764.73 669.38 765.18 668.743C765.303 668.585 765.508 668.477 765.63 668.477C765.753 668.477 765.587 668.797 765.342 669.114ZM646.787 680.375C646.787 680.479 645.603 681.808 644.134 683.294L641.477 686.002L637.107 683.136L632.693 680.213H639.76C643.601 680.162 646.787 680.267 646.787 680.375ZM505.642 689.72C507.399 692.057 508.788 694.019 508.666 694.181C508.133 694.922 499.065 699.703 498.859 699.383C498.697 699.17 498.208 697.63 497.715 695.88C496.858 692.906 496.858 692.694 497.553 691.632C498.859 689.558 501.923 685.472 502.168 685.472C502.29 685.472 503.845 687.384 505.642 689.72ZM635.757 701.136C635.757 701.294 634.9 703.102 633.838 705.172L631.919 708.887L628.935 705.013C627.3 702.889 625.954 701.082 625.954 701.028C625.954 700.924 628.161 700.87 630.857 700.87C633.553 700.87 635.757 700.978 635.757 701.136ZM252.273 719.402C252.437 719.615 251.701 721.048 250.639 722.588L248.678 725.35L246.022 721.847L243.367 718.394L247.657 718.711C250.026 718.924 252.069 719.244 252.273 719.402ZM232.541 736.448C232.541 736.607 231.03 737.244 229.191 737.881L225.801 739.051L224.534 737.244C223.308 735.491 221.102 730.181 221.102 729.014C221.102 728.482 232.5 735.865 232.541 736.448ZM256.522 771.282C258.891 771.973 261.669 772.186 267.552 772.24H275.355L270.044 777.708L264.733 783.176L263.467 782.273C260.893 780.574 257.216 777.071 254.724 773.989C252.232 770.911 251.497 769.478 252.722 770.062C253.049 770.22 254.765 770.803 256.522 771.282Z" fill="#07151F"/>
<path d="M301.23 318.599C286.83 318.599 31.1947 320.397 25.8295 318.599C20.4644 316.8 16.8507 280.8 36.6472 271.8C57.1243 262.49 74.4295 277.199 74.4295 277.199C82.0461 257.811 92.4295 244.8 115.83 244.8C148.23 246.6 151.83 277.199 151.83 277.199C160.83 273.6 169.83 275.4 178.83 286.199C182.817 290.983 182.43 271.8 205.83 271.8C229.23 271.8 243.63 304.199 243.63 304.199C278.289 304.522 315.63 318.599 301.23 318.599Z" fill="#D9D9D9"/>
<path d="M827.579 372.794C816.797 372.794 706.997 374.594 699.779 372.794C692.564 370.994 715.979 367.394 715.979 367.394C715.979 367.394 721.922 360.95 726.779 358.395C733.738 354.738 746.579 354.795 746.579 354.795C746.579 354.795 753.797 343.995 766.379 342.195C780.649 340.154 784.379 354.795 784.379 354.795C784.379 354.795 795.211 351.447 800.579 354.795C805.388 357.795 807.779 367.394 807.779 367.394C807.779 367.394 838.364 372.794 827.579 372.794Z" fill="#D9D9D9"/>
<path d="M692.997 320.447C683.997 324.047 532.8 318.646 532.8 318.646C532.8 318.646 529.2 317.035 529.2 315.046C529.2 313.058 532.8 311.446 532.8 311.446L633.6 309.646C633.6 309.646 645.808 297.976 655.2 298.846C665.147 299.768 671.397 315.046 675 315.046C678.604 315.046 678.597 307.847 687.6 307.846C692.241 307.846 694.797 309.647 694.797 309.647C694.797 309.647 701.997 316.847 692.997 320.447Z" fill="#D9D9D9"/>
<path d="M668.192 411.61C666.723 414.385 666.885 415.202 669.988 416.837C672.112 417.816 678.319 422.388 684.036 426.798C695.959 436.108 697.917 433.494 687.628 421.571C675.05 407.362 685.177 412.589 702.655 429.412C714.74 441.173 720.291 452.113 720.291 464.526C720.291 475.142 718.822 475.96 710.658 470.408C706.737 467.795 702.817 465.671 702.165 465.671C701.51 465.671 697.59 459.299 693.507 451.296C684.525 434.149 669.661 416.671 663.782 416.671C658.717 416.671 658.717 420.592 663.782 422.878C665.906 423.857 669.333 426.96 671.457 430.063L675.216 435.456L671.133 432.025C665.089 426.636 656.431 422.716 654.634 424.512C653.817 425.329 652.838 431.37 652.348 438.07C651.369 451.134 648.918 461.261 646.797 460.444C646.142 460.116 643.039 456.689 640.098 452.768C630.788 440.68 625.237 438.721 599.432 438.883C577.054 439.049 550.105 443.293 538.347 448.52C533.282 450.806 533.448 450.806 542.268 450.155C547.167 449.665 560.07 449.01 571.014 448.52L590.774 447.703L586.854 459.299C582.771 471.55 582.771 475.798 587.019 467.795C589.305 463.057 602.697 452.768 602.697 455.706C602.697 456.523 601.552 457.992 600.249 459.137C595.512 463.057 597.798 463.874 604.821 460.771C613.152 456.851 620.827 456.689 627.195 459.954C632.912 462.895 634.384 467.14 632.912 476.777C631.116 489.352 628.34 493.927 613.641 508.298C595.184 526.428 593.06 533.614 599.432 554.519C603.842 568.238 606.128 569.873 603.187 556.643C601.88 551.092 601.063 542.596 601.552 537.696C602.046 530.183 603.025 528.224 607.435 524.632C610.21 522.346 615.765 517.608 619.682 514.177C625.399 509.278 628.012 508.136 633.567 508.136C637.16 508.136 640.263 507.319 640.263 506.502C640.263 503.561 648.594 504.868 661.006 509.767C672.764 514.505 673.581 514.667 676.357 512.057C678.153 510.422 679.136 508.954 678.808 508.46C678.319 508.136 676.846 508.954 675.378 510.422C669.988 515.812 669.826 510.912 675.05 504.378C680.767 497.354 687.79 484.78 690.894 476.449C692.528 471.877 692.69 471.877 695.793 474.653C698.407 477.104 698.896 479.552 698.734 489.19C698.407 503.071 697.917 504.216 694.159 500.785C691.711 498.661 691.221 498.499 690.404 500.623C689.752 502.092 690.732 503.237 693.018 503.888C696.938 504.868 700.693 502.42 700.693 498.499C700.693 495.068 711.309 483.635 714.412 483.635C717.681 483.635 721.926 477.266 723.56 469.915C725.194 462.73 722.743 447.379 718.66 439.538C712.126 426.798 691.383 412.099 675.867 409.324C670.968 408.341 669.661 408.668 668.192 411.61ZM676.033 462.895C673.909 465.016 671.785 466.322 671.295 465.998C670.478 465.343 677.502 459.137 679.136 459.137C679.626 459.137 678.153 460.771 676.033 462.895ZM710.168 480.042C710.492 481.187 710.002 482.004 708.861 482.004C706.899 482.004 699.224 473.836 699.062 471.55C699.062 469.753 709.351 477.594 710.168 480.042Z" fill="#D9D9D9"/>
<path d="M459.457 465.509C452.923 468.936 442.307 475.632 435.776 480.37L424.177 488.862L328.469 494.906L232.759 500.785L323.733 501.275L414.706 501.602L412.092 508.626C407.848 520.222 409.316 542.599 415.85 559.256C417.157 562.687 382.205 564.156 364.237 561.38C356.561 560.236 349.048 559.584 347.578 560.074C341.535 561.542 344.802 565.628 355.908 570.528C364.565 574.445 367.668 576.735 369.302 580.651C370.933 584.248 373.057 585.878 376.322 586.534C380.732 587.351 381.388 588.33 384.163 598.781C385.798 604.987 387.594 613.318 388.084 617.076L388.735 623.772L372.078 624.751C362.768 625.403 304.133 627.692 241.742 629.978C58.9791 636.674 58.9792 636.675 232.269 637.002L391.838 637.164L393.8 644.022C396.414 654.149 393.962 660.355 379.753 677.668C372.895 685.836 366.851 692.694 366.361 692.694C365.872 692.694 361.296 690.246 356.235 687.143C351.171 684.04 341.208 679.464 334.022 676.854C322.099 672.768 318.996 672.278 298.09 672.278C277.184 672.278 274.081 672.768 262.158 676.854C233.576 686.815 208.423 708.7 196.011 734.18C189.641 747.245 184.578 763.254 184.578 770.602C184.578 773.053 183.434 774.522 180.985 775.012C178.861 775.501 146.686 778.115 109.447 780.89C72.2088 783.67 40.523 786.118 39.2166 786.445C37.9098 786.773 69.5956 787.097 109.611 787.262L182.618 787.424L183.598 791.017C184.088 793.141 184.578 797.062 184.578 799.675C184.578 808.33 189.314 823.684 196.011 837.403C203.85 853.571 220.346 872.028 236.353 882.317L247.296 889.506L178.044 892.116C139.826 893.588 84.7847 895.712 55.5494 896.692C26.3137 897.833 1.32464 898.978 0.0180232 899.14C-1.28859 899.467 68.6153 899.795 155.342 899.957C307.89 900.122 313.443 899.957 326.019 896.854C347.578 891.464 361.296 883.462 378.284 866.639C388.735 856.35 394.618 848.671 398.538 840.996L404.089 830.218L408.172 836.914C413.071 845.406 422.381 855.533 428.263 858.636C434.47 861.901 443.124 861.412 447.7 857.819C451.292 855.043 451.292 854.388 449.168 850.144C447.862 847.53 446.555 844.916 446.227 844.099C445.9 843.448 447.534 842.954 449.986 842.954C456.026 842.954 466.319 837.241 470.236 831.848C479.711 818.456 478.238 802.613 466.153 791.017L458.968 784.159L461.581 778.77C465.174 771.908 483.631 753.779 503.064 738.263C533.606 713.927 581.137 677.995 582.934 677.995C583.913 677.995 585.709 680.119 587.178 682.895L589.63 687.632L579.992 694.166C549.94 714.582 530.341 754.924 532.955 791.507C534.1 807.678 540.14 827.276 548.309 841.158C556.146 854.554 572.969 871.376 586.199 879.214L596.488 885.096L589.302 886.075C585.547 886.727 564.638 888.523 543.244 890.32C521.687 892.116 503.719 894.078 503.23 894.568C502.74 895.057 538.672 895.219 583.096 894.895C673.578 894.24 669.661 894.73 694.976 881.665C713.758 872.028 732.377 853.247 741.197 834.628C750.179 816.17 752.958 804.085 752.958 784.649C752.958 766.03 750.344 753.944 742.504 737.611C727.967 706.903 699.876 684.367 667.048 677.016C652.345 673.751 624.744 674.564 612.004 678.485L604.166 680.936L600.898 675.871C599.267 672.934 597.794 668.686 597.794 666.238C597.794 662.641 598.777 661.662 603.184 660.845C605.963 660.193 609.228 659.048 610.207 658.235C611.19 657.418 617.886 656.273 624.91 655.945C639.608 654.966 644.508 651.863 645.977 642.226C646.632 638.96 648.428 633.082 650.225 628.999C652.838 622.955 653.49 618.872 653 607.766C652.345 590.778 654.307 589.799 662.962 602.701C669.985 613.318 677.009 619.034 679.622 616.421C680.767 615.28 679.95 613.645 676.357 611.032C670.475 606.949 666.392 599.598 662.148 585.716C660.514 580.327 658.39 574.938 657.245 573.631C654.469 570.528 651.856 572.814 644.018 584.572C638.302 593.064 633.892 596.167 623.603 598.781C619.682 599.764 619.027 599.27 615.596 591.595C610.373 579.182 609.556 582.941 614.783 595.843C617.231 602.374 620.824 608.256 623.275 610.052C627.52 612.99 627.52 612.99 626.378 609.563C625.399 606.46 625.889 606.132 633.402 606.132C642.056 606.132 643.529 607.439 643.529 615.442C643.529 621.648 638.626 631.285 636.505 629.161C633.074 625.73 631.768 627.365 634.381 631.447C638.626 637.816 635.688 639.778 630.133 634.388L625.234 629.813L628.013 635.206C631.768 642.881 629.644 643.698 623.927 637.002L619.027 631.447L621.313 637.492C623.603 643.043 623.275 645.329 620.5 645.329C619.844 645.329 618.048 641.412 616.579 636.674C614.945 632.102 609.883 620.014 604.984 610.214C600.246 600.253 593.06 584.572 588.974 575.1L581.461 557.95L587.344 564.484L593.222 571.018L585.382 556.315C572.969 533.124 572.807 532.472 572.969 525.121C573.296 519.077 578.851 497.682 582.278 489.517C583.423 486.738 583.096 486.576 578.034 487.555C574.931 488.045 562.19 489.19 549.616 490.007C524.462 491.803 515.315 494.251 505.516 501.93C501.923 504.706 498.002 507.809 496.696 508.788C492.775 511.891 499.637 499.644 505.354 493.762L510.415 488.372L505.516 489.352C495.716 491.641 481.669 498.989 477.587 503.726C468.605 514.505 468.605 514.667 487.714 533.124C497.351 542.272 509.764 555.664 515.315 562.849C529.362 580.979 552.064 615.604 552.064 619.034C552.064 624.589 544.55 633.082 532.465 641.084C518.418 650.394 450.803 698.738 448.351 701.352C446.393 703.31 467.788 691.715 474.156 687.305C476.77 685.67 479.056 684.367 479.383 684.691C480.035 685.508 473.666 700.697 461.092 728.302C454.72 742.183 451.454 747.738 450.637 746.104C449.82 744.797 448.024 736.304 446.555 727.157C443.941 712.13 443.452 710.5 439.859 709.682C435.449 708.538 428.263 699.883 427.608 694.98C427.28 692.532 432.18 687.47 446.717 675.547C457.499 666.562 472.525 653.987 480.2 647.291C487.876 640.595 501.433 630.302 510.415 624.424C519.397 618.545 527.076 613.483 527.4 613.156C527.728 612.99 521.849 606.784 514.008 599.598C503.719 589.961 450.637 533.614 446.393 527.897C446.065 527.573 445.576 527.573 445.248 527.897C444.92 528.224 450.31 536.555 457.333 546.516C464.357 556.315 469.912 564.811 469.422 565.135C468.439 566.28 448.513 547.006 443.29 539.82C440.51 535.9 437.245 529.369 436.1 525.283C431.039 507.319 447.044 477.922 470.401 462.078C477.587 457.178 471.542 458.975 459.457 465.509ZM539.651 546.844C535.73 553.05 532.465 559.257 532.465 561.053C532.465 562.687 541.12 578.365 551.574 595.843C571.828 629.651 572.152 630.468 561.046 630.63C556.146 630.63 556.146 630.63 556.636 622.465C557.129 616.421 556.312 612.5 553.698 607.277C547.654 595.678 526.093 563.504 515.97 551.092C510.577 544.72 506.333 539.003 506.333 538.513C506.333 537.044 513.518 536.393 530.341 536.065L547.002 535.9L539.651 546.844ZM563.17 545.209L566.928 552.722L561.535 558.277C558.76 561.218 555.329 563.666 554.188 563.666C553.043 563.666 555.494 568.566 559.904 574.61C564.314 580.817 570.683 590.289 574.114 596.005C577.544 601.56 580.648 605.97 580.972 605.642C582.116 604.336 570.845 578.693 565.783 571.669L560.556 564.156L565.132 561.38L569.704 558.767L575.42 568.894C584.402 585.061 594.857 606.46 594.04 607.111C593.712 607.439 587.995 608.256 581.299 608.746C574.603 609.397 568.397 610.542 567.252 611.359C565.945 612.338 563.987 610.542 560.884 604.987C558.432 600.743 554.026 593.064 551.246 588.164C539.651 568.566 537.203 562.525 538.999 557.622C540.468 553.705 556.312 537.534 558.598 537.696C559.087 537.696 561.046 541.127 563.17 545.209ZM429.077 600.415C433.814 615.604 437.735 629.161 437.735 630.14C437.735 632.426 424.994 632.754 410.951 630.958L402.944 629.813L398.372 615.931C395.924 608.256 393.311 598.946 392.821 595.188C391.838 589.637 390.532 587.675 386.125 585.061C378.119 580.327 379.264 578.365 390.042 578.203C395.269 578.203 402.455 576.896 406.703 575.1C419.767 569.545 419.605 569.383 429.077 600.415ZM477.587 601.07L483.793 604.987L482.648 617.4C481.997 624.262 481.018 630.468 480.362 631.12C479.545 631.775 473.994 632.264 467.788 631.937L456.516 631.447L453.74 620.014C452.106 613.645 451.127 607.928 451.292 607.111C451.616 606.294 453.906 609.073 456.354 613.318C458.806 617.566 461.254 620.831 461.581 620.503C462.233 619.852 454.068 590.454 451.454 584.248C450.637 582.286 453.906 583.92 460.764 589.147C466.481 593.557 473.994 598.946 477.587 601.07ZM505.354 612.011L510.088 613.156L502.412 617.076C498.002 619.196 494.248 620.669 493.754 620.179C493.265 619.852 493.43 617.076 494.082 614.297C494.899 610.704 495.878 609.563 497.84 610.052C499.471 610.542 502.74 611.359 505.354 612.011ZM604.818 627.365C607.432 634.061 610.697 640.757 612.004 642.391C614.128 644.677 613.966 645.167 611.352 645.984C609.556 646.474 606.614 649.249 604.656 651.863C599.918 658.069 597.143 658.069 593.222 651.373C590.119 646.474 581.461 623.772 581.461 620.831C581.461 619.196 594.367 614.462 597.794 614.786C599.101 614.952 602.204 620.341 604.818 627.365ZM472.032 641.736C472.032 642.391 469.422 645.494 466.319 648.598C463.216 651.701 460.602 653.332 460.602 652.352C460.602 651.373 460.112 648.27 459.619 645.494C458.64 640.429 458.64 640.429 465.336 640.429C468.929 640.429 472.032 641.084 472.032 641.736ZM445.248 653.008C446.882 659.214 448.351 664.441 448.351 664.931C448.351 665.42 443.124 670.648 436.59 676.688C423.198 689.267 417.319 691.063 415.523 683.222C415.033 680.771 413.071 673.258 411.44 666.238C408.172 653.332 407.52 645.005 409.478 643.208C409.968 642.553 417.647 642.064 426.301 642.064H442.145L445.248 653.008ZM567.418 645.656C571.662 651.701 570.521 656.435 563.17 664.114C553.532 674.24 460.274 751.493 457.823 751.493C456.516 751.493 458.15 747.41 461.581 741.204C466.808 732.056 483.955 697.27 491.468 680.447C494.082 674.564 497.185 672.278 521.194 658.235C545.368 643.86 548.798 642.391 556.474 642.226C563.497 642.064 565.456 642.719 567.418 645.656ZM392.004 700.373C395.759 704.783 403.11 717.196 408.661 728.136L418.464 748.062L415.361 757.537L412.092 767.009L408.499 754.758C403.272 737.284 394.78 722.095 383.512 709.844C373.874 699.39 373.712 699.066 376.488 695.963C381.06 690.898 384.653 692.042 392.004 700.373ZM319.159 701.68C329.449 704.455 346.272 712.13 346.272 714.092C346.272 714.744 342.188 721.112 337.125 728.136C304.46 774.032 308.706 769.295 300.867 769.133C291.884 768.967 285.841 773.215 282.738 782.035C280.614 787.914 280.777 789.059 283.554 794.938C290.414 809.147 308.87 809.964 316.383 796.406C317.69 794.286 320.302 794.448 338.922 797.224C373.057 802.289 381.222 804.247 381.877 807.678C382.205 809.147 379.919 816.008 376.65 822.704C362.279 853.081 331.899 872.356 298.254 872.356C219.04 872.356 181.311 774.36 240.109 721.606C261.505 702.331 292.047 694.656 319.159 701.68ZM664.106 704.128C680.274 708.376 691.873 715.234 703.958 728.136C746.096 773.053 726.498 846.551 667.537 864.515C658.228 867.29 653.49 867.784 638.953 867.128C620.006 866.149 612.493 864.025 598.45 855.043C578.686 842.63 563.17 818.622 560.394 796.406C556.312 762.926 570.193 732.874 598.122 714.254L604.656 710.006L608.576 714.744C610.697 717.52 612.493 720.133 612.493 720.788C612.493 721.278 609.39 723.564 605.473 725.85C595.836 731.567 584.564 743.98 579.341 754.924C559.577 795.265 584.075 844.099 628.502 852.757C646.304 856.35 668.844 851.612 680.274 842.141L685.177 838.055L677.009 841.813C670.313 844.754 665.903 845.406 651.694 845.406C635.85 845.406 633.726 845.078 623.437 840.179C610.045 833.81 598.939 822.866 592.078 809.312C587.506 800.327 587.178 798.53 587.178 780.89C587.178 763.416 587.506 761.458 591.916 753.127C598.122 741.366 602.042 736.304 609.39 730.26L615.596 725.36L621.151 734.67C624.092 739.897 628.992 749.858 631.93 757.048C637.157 769.784 637.157 769.784 634.054 772.888C624.092 782.035 630.299 797.224 643.853 797.224C659.207 797.224 663.944 777.463 650.387 770.44C646.794 768.643 645.325 766.192 643.853 759.985C642.874 755.575 639.119 744.959 635.36 736.628C631.768 728.136 628.826 720.788 628.826 720.133C628.826 719.644 630.788 718.337 633.402 717.358C637.812 715.723 637.812 715.723 632.257 716.051C627.52 716.378 626.213 715.561 623.437 710.989C619.682 704.783 620.172 703.966 628.337 702.493C639.608 700.207 651.038 700.862 664.106 704.128ZM364.075 729.77C373.874 740.714 381.877 758.027 384.163 773.053C386.615 789.548 384.818 794.776 376.816 793.469C373.874 792.979 359.828 790.855 345.292 788.893L318.996 785.138L316.873 780.077C315.566 777.463 314.749 774.36 314.749 773.377C314.749 770.929 354.111 722.095 355.908 722.095C356.725 722.095 360.482 725.522 364.075 729.77ZM426.139 769.95C429.57 780.89 429.732 782.525 427.774 789.876C426.467 794.12 424.67 798.041 423.526 798.368C420.422 799.51 414.544 789.221 413.561 781.384C412.909 775.991 413.726 772.07 416.502 766.03C418.626 761.62 420.75 758.027 421.402 758.027C422.057 758.027 424.177 763.416 426.139 769.95ZM291.72 777.787C286.821 783.504 286.494 787.262 289.924 793.796C292.7 799.186 295.15 800.492 303.48 800.654C309.033 800.654 309.196 800.816 305.603 802.289C294.007 806.861 281.594 794.448 286.004 782.687C286.984 780.401 289.27 777.136 291.23 775.667C296.457 771.581 296.457 772.07 291.72 777.787ZM463.05 797.224C467.132 801.472 467.46 802.451 465.502 803.758C461.909 806.044 456.354 805.716 454.23 803.106C451.944 800.327 454.558 798.041 457.823 799.837C459.457 800.816 459.457 800.492 457.823 798.696C455.375 796.244 455.047 792.324 457.009 792.324C457.823 792.324 460.436 794.61 463.05 797.224ZM434.47 797.224C434.47 799.02 433.487 800.492 432.18 800.492C430.711 800.492 430.222 799.348 430.711 797.224C431.201 795.427 432.18 793.958 432.997 793.958C433.814 793.958 434.47 795.427 434.47 797.224ZM460.926 818.784C460.436 821.07 460.602 821.887 461.909 821.07C463.05 820.418 463.867 818.622 464.029 817.15C464.029 815.191 464.357 815.026 465.012 816.66C465.826 818.456 466.153 818.456 467.298 816.66C468.277 814.864 468.767 815.191 468.767 817.805C468.767 822.377 460.764 832.993 457.171 833.155C454.396 833.155 454.23 824.828 457.009 820.253C460.274 814.374 462.398 813.557 460.926 818.784ZM444.269 827.604C444.269 828.256 442.796 828.256 441 827.766C439.204 827.276 438.062 827.604 438.714 828.421C439.204 829.238 440.51 829.89 441.655 829.89C442.962 829.89 444.269 831.359 444.758 833.155C445.41 835.607 444.758 836.424 442.634 836.424C438.062 836.424 434.47 831.848 434.47 826.459V821.56L439.369 824.173C442.145 825.642 444.269 827.114 444.269 827.604Z" fill="#D9D9D9"/>
<path d="M278.164 718.009C254.645 724.381 236.189 742.021 229.656 764.395C226.226 775.829 226.39 794.12 229.656 805.554C242.559 849.161 297.274 868.273 334.022 842.303C337.615 839.689 339.085 838.22 337.289 838.872C319.486 845.733 315.729 846.551 302.173 845.895C291.557 845.406 286.004 844.261 278.818 840.996C265.915 834.951 252.685 822.049 246.152 808.819C241.252 798.858 240.926 797.061 240.926 780.89C240.926 764.885 241.252 762.926 246.152 753.127C254.318 736.304 267.548 724.709 285.677 718.009C293.517 715.071 288.781 715.233 278.164 718.009Z" fill="#D9D9D9"/>
<path d="M681.088 506.664C681.088 507.481 681.905 507.809 682.722 507.319C683.702 506.83 684.357 506.012 684.357 505.523C684.357 505.195 683.702 504.868 682.722 504.868C681.905 504.868 681.088 505.685 681.088 506.664Z" fill="#D9D9D9"/>
</g>
<defs>
<linearGradient id="paint0_linear_69_164" x1="144" y1="739.8" x2="680.4" y2="102.6" gradientUnits="userSpaceOnUse">
<stop stop-color="#5BBCFF"/>
<stop offset="1" stop-color="#D75823"/>
</linearGradient>
<linearGradient id="paint1_linear_69_164" x1="450" y1="900" x2="450" y2="8.13543e-06" gradientUnits="userSpaceOnUse">
<stop stop-color="#091E42"/>
<stop offset="1" stop-color="#5BBCFF"/>
</linearGradient>
<clipPath id="clip0_69_164">
<rect width="900" height="900" fill="white"/>
</clipPath>
</defs>
</svg>
